<?xml version="1.0" encoding="UTF-8" standalone="no"?>
<!-- Created with Inkscape (http://www.inkscape.org/) -->

<svg
   width="101.3409mm"
   height="101.34091mm"
   viewBox="0 0 101.3409 101.34091"
   version="1.1"
   id="svg1"
   inkscape:version="1.3 (0e150ed6c4, 2023-07-21)"
   sodipodi:docname="planets.svg"
   inkscape:export-filename="linearplanet.svg"
   inkscape:export-xdpi="96"
   inkscape:export-ydpi="96"
   xml:space="preserve"
   xmlns:inkscape="http://www.inkscape.org/namespaces/inkscape"
   xmlns:sodipodi="http://sodipodi.sourceforge.net/DTD/sodipodi-0.dtd"
   xmlns="http://www.w3.org/2000/svg"
   xmlns:svg="http://www.w3.org/2000/svg"><sodipodi:namedview
     id="namedview1"
     pagecolor="#ffffff"
     bordercolor="#000000"
     borderopacity="0.25"
     inkscape:showpageshadow="2"
     inkscape:pageopacity="0.0"
     inkscape:pagecheckerboard="0"
     inkscape:deskcolor="#d1d1d1"
     inkscape:document-units="mm"
     inkscape:zoom="0.13086758"
     inkscape:cx="2036.4096"
     inkscape:cy="561.63643"
     inkscape:window-width="1920"
     inkscape:window-height="1057"
     inkscape:window-x="1912"
     inkscape:window-y="-8"
     inkscape:window-maximized="1"
     inkscape:current-layer="layer1"
     showguides="false" /><defs
     id="defs1"><clipPath
       clipPathUnits="userSpaceOnUse"
       id="clipPath7"><circle
         style="fill:#6b679e;fill-opacity:1;stroke-width:2.64583;stroke-linecap:round"
         id="circle7"
         cx="936.40588"
         cy="287.83694"
         r="50.670452" /></clipPath></defs><g
     inkscape:label="Layer 1"
     inkscape:groupmode="layer"
     id="layer1"
     transform="translate(-917.36526,48.414122)"><g
       id="g6"
       transform="translate(-11.367566,-7.0611144)"><g
         id="g7"
         clip-path="url(#clipPath7)"
         transform="translate(42.99741,-278.5195)"><circle
           style="fill:#6b679e;fill-opacity:1;stroke-width:2.64583;stroke-linecap:round"
           id="path1-5-6"
           cx="936.40588"
           cy="287.83694"
           r="50.670452" /><g
           id="g5"><g
             id="sketch-a7050074-0"
             style="stroke:#40c7c2;stroke-width:18.8976;stroke-dasharray:none;stroke-opacity:1"
             transform="matrix(0.45827178,0.26458333,-0.26458333,0.45827178,935.91242,140.22468)"><title
               id="title66-6">Expression 1</title><path
               fill="#c74440"
               stroke="none"
               paint-order="stroke fill markers"
               d=""
               fill-opacity="0.4"
               id="path66-9"
               style="stroke:#40c7c2;stroke-width:18.8976;stroke-dasharray:none;stroke-opacity:1" /><g
               id="g67-5"
               style="stroke:#40c7c2;stroke-width:18.8976;stroke-dasharray:none;stroke-opacity:1"><path
                 fill="none"
                 stroke="#c74440"
                 class="dcg-svg-curve"
                 paint-order="fill stroke markers"
                 d="M 0,204.51533 V 204.51533 L 61.71875,204.36655 81.835937,204.07099 94.53125,203.63752 103.90625,203.06713 111.32813,202.36437 117.48047,201.53059 122.85156,200.54306 127.53906,199.41817 131.73828,198.1428 135.54687,196.71243 139.0625,195.10894 142.28516,193.35137 145.3125,191.40244 148.24219,189.19318 151.07422,186.70454 153.80859,183.91902 156.44531,180.82126 159.08203,177.25773 161.62109,173.32066 164.0625,168.99982 166.40625,164.28985 168.65234,159.19115 170.80078,153.71056 172.85156,147.86206 174.90234,141.34036 176.95312,134.068 178.90625,126.36508 180.85938,117.81997 182.8125,108.34058 184.76562,97.824786 186.71875,86.159253 188.67187,73.218282 190.625,58.862424 192.57812,42.936984 194.53125,25.270352 196.38672,6.7011137 197.49143,-5.5"
                 stroke-linecap="round"
                 stroke-linejoin="round"
                 stroke-miterlimit="10"
                 stroke-width="2.5"
                 stroke-dasharray="none"
                 id="path67-0"
                 style="stroke:#40c7c2;stroke-width:18.8976;stroke-dasharray:none;stroke-opacity:1" /></g></g><g
             id="g70-6"
             style="stroke:#33a39e;stroke-width:18.8976;stroke-dasharray:none;stroke-opacity:1"
             transform="matrix(0.45827178,0.26458333,-0.26458333,0.45827178,928.4929,125.78959)"><title
               id="title67-3">Expression 2</title><path
               fill="#2d70b3"
               stroke="none"
               paint-order="stroke fill markers"
               d=""
               fill-opacity="0.4"
               id="path68-8"
               style="stroke:#33a39e;stroke-width:18.8976;stroke-dasharray:none;stroke-opacity:1" /><g
               id="g69-5"
               style="stroke:#33a39e;stroke-width:18.8976;stroke-dasharray:none;stroke-opacity:1"><path
                 fill="none"
                 stroke="#2d70b3"
                 class="dcg-svg-curve"
                 paint-order="fill stroke markers"
                 d="M 0,204.50951 V 204.50951 L 50.78125,204.34821 69.921875,204.04306 82.324219,203.59718 91.503906,203.01644 98.828125,202.30072 104.98047,201.44233 110.25391,200.44685 114.84375,199.3218 118.94531,198.05598 122.75391,196.60614 126.26953,194.98081 129.49219,193.19932 132.51953,191.22386 135.44922,188.98453 138.28125,186.46202 141.01562,183.63857 143.65234,180.49865 146.28906,176.8866 148.82812,172.89594 151.26953,168.51628 153.51562,163.95322 155.76172,158.81185 157.91016,153.2854 159.96094,147.38796 162.01172,140.8117 164.0625,133.47848 166.01562,125.7111 167.96875,117.09449 169.92188,107.53579 171.875,96.931999 173.82812,85.168855 175.78125,72.1196 177.73437,57.643619 179.6875,41.584921 181.64062,23.770464 183.49609,5.0458464 184.44301,-5.5"
                 stroke-linecap="round"
                 stroke-linejoin="round"
                 stroke-miterlimit="10"
                 stroke-width="2.5"
                 stroke-dasharray="none"
                 id="path69-1"
                 style="stroke:#33a39e;stroke-width:18.8976;stroke-dasharray:none;stroke-opacity:1" /></g></g><g
             id="g76-2"
             style="stroke:#47dbd6;stroke-width:18.8976;stroke-dasharray:none;stroke-opacity:1"
             transform="matrix(0.45827178,0.26458333,-0.26458333,0.45827178,941.84696,154.67772)"><title
               id="title74-7">Expression 5</title><path
               fill="#000000"
               stroke="none"
               paint-order="stroke fill markers"
               d=""
               fill-opacity="0.4"
               id="path74-4"
               style="stroke:#47dbd6;stroke-width:18.8976;stroke-dasharray:none;stroke-opacity:1" /><g
               id="g75-4"
               style="stroke:#47dbd6;stroke-width:18.8976;stroke-dasharray:none;stroke-opacity:1"><path
                 fill="none"
                 stroke="#000000"
                 class="dcg-svg-curve"
                 paint-order="fill stroke markers"
                 d="M 0,204.51824 V 204.51824 L 73.4375,204.37709 94.140625,204.08841 107.03125,203.66285 116.50391,203.10147 124.02344,202.40434 130.27344,201.57075 135.64453,200.59649 140.33203,199.4867 144.53125,198.22846 148.33984,196.8173 151.85547,195.23534 155.07812,193.50138 158.10547,191.57862 161.03516,189.39903 163.86719,186.94382 166.60156,184.1957 169.23828,181.13954 171.875,177.62387 174.41406,173.73968 176.85547,169.47686 179.19922,164.83015 181.44531,159.79992 183.59375,154.39294 185.74219,148.33222 187.79297,141.86464 189.84375,134.65262 191.79687,127.01362 193.75,118.53942 195.70312,109.1387 197.65625,98.710163 199.60937,87.141433 201.5625,74.307847 203.51562,60.071116 205.46875,44.277826 207.42187,26.757795 209.375,7.322229 210.53961,-5.5"
                 stroke-linecap="round"
                 stroke-linejoin="round"
                 stroke-miterlimit="10"
                 stroke-width="2.5"
                 stroke-dasharray="none"
                 id="path75-7"
                 style="stroke:#47dbd6;stroke-width:18.8976;stroke-dasharray:none;stroke-opacity:1" /></g></g><g
             id="g80-6"
             style="stroke:#35a6a2;stroke-width:18.8976;stroke-dasharray:none;stroke-opacity:1"
             transform="matrix(0.45827178,0.26458333,-0.26458333,0.45827178,939.33554,164.48565)"><title
               id="title78-3">Expression 7</title><path
               fill="#2d70b3"
               stroke="none"
               paint-order="stroke fill markers"
               d=""
               fill-opacity="0.4"
               id="path78-5"
               style="stroke:#35a6a2;stroke-width:18.8976;stroke-dasharray:none;stroke-opacity:1" /><g
               id="g79-3"
               style="stroke:#35a6a2;stroke-width:18.8976;stroke-dasharray:none;stroke-opacity:1"><path
                 fill="none"
                 stroke="#2d70b3"
                 class="dcg-svg-curve"
                 paint-order="fill stroke markers"
                 d="M 0,204.52057 V 204.52057 L 102.34375,204.38733 123.63281,204.10649 136.81641,203.6858 146.38672,203.13224 154.00391,202.43945 160.35156,201.60459 165.72266,200.64151 170.41016,199.54445 174.60937,198.30065 178.41797,196.90568 181.93359,195.34186 185.25391,193.57113 188.37891,191.59364 191.30859,189.41659 194.14062,186.96422 196.875,184.21929 199.51172,181.16669 202.14844,177.65509 204.6875,173.77541 207.12891,169.51754 209.47266,164.87622 211.71875,159.85184 213.86719,154.45113 216.01562,148.39745 218.06641,141.93738 220.11719,134.73373 222.07031,127.1036 224.02344,118.63924 225.97656,109.24943 227.92969,98.832996 229.88281,87.277695 231.83594,74.459008 233.78906,60.238803 235.74219,44.463848 237.69531,26.964155 239.64844,7.5511515 240.83522,-5.5"
                 stroke-linecap="round"
                 stroke-linejoin="round"
                 stroke-miterlimit="10"
                 stroke-width="2.5"
                 stroke-dasharray="none"
                 id="path79-3"
                 style="stroke:#35a6a2;stroke-width:18.8976;stroke-dasharray:none;stroke-opacity:1" /></g></g></g><g
           id="g5-3"
           transform="matrix(0.5,0.8660254,0.8660254,-0.5,218.59643,-379.57157)"><g
             id="sketch-a7050074-0-9"
             style="stroke:#40c7c2;stroke-width:18.8976;stroke-dasharray:none;stroke-opacity:1"
             transform="matrix(0.45827178,0.26458333,-0.26458333,0.45827178,935.91242,140.22468)"><title
               id="title66-6-8">Expression 1</title><path
               fill="#c74440"
               stroke="none"
               paint-order="stroke fill markers"
               d=""
               fill-opacity="0.4"
               id="path66-9-4"
               style="stroke:#40c7c2;stroke-width:18.8976;stroke-dasharray:none;stroke-opacity:1" /><g
               id="g67-5-8"
               style="stroke:#40c7c2;stroke-width:18.8976;stroke-dasharray:none;stroke-opacity:1"><path
                 fill="none"
                 stroke="#c74440"
                 class="dcg-svg-curve"
                 paint-order="fill stroke markers"
                 d="M 0,204.51533 V 204.51533 L 61.71875,204.36655 81.835937,204.07099 94.53125,203.63752 103.90625,203.06713 111.32813,202.36437 117.48047,201.53059 122.85156,200.54306 127.53906,199.41817 131.73828,198.1428 135.54687,196.71243 139.0625,195.10894 142.28516,193.35137 145.3125,191.40244 148.24219,189.19318 151.07422,186.70454 153.80859,183.91902 156.44531,180.82126 159.08203,177.25773 161.62109,173.32066 164.0625,168.99982 166.40625,164.28985 168.65234,159.19115 170.80078,153.71056 172.85156,147.86206 174.90234,141.34036 176.95312,134.068 178.90625,126.36508 180.85938,117.81997 182.8125,108.34058 184.76562,97.824786 186.71875,86.159253 188.67187,73.218282 190.625,58.862424 192.57812,42.936984 194.53125,25.270352 196.38672,6.7011137 197.49143,-5.5"
                 stroke-linecap="round"
                 stroke-linejoin="round"
                 stroke-miterlimit="10"
                 stroke-width="2.5"
                 stroke-dasharray="none"
                 id="path67-0-7"
                 style="stroke:#40c7c2;stroke-width:18.8976;stroke-dasharray:none;stroke-opacity:1" /></g></g><g
             id="g70-6-8"
             style="stroke:#33a39e;stroke-width:18.8976;stroke-dasharray:none;stroke-opacity:1"
             transform="matrix(0.45827178,0.26458333,-0.26458333,0.45827178,928.4929,125.78959)"><title
               id="title67-3-0">Expression 2</title><path
               fill="#2d70b3"
               stroke="none"
               paint-order="stroke fill markers"
               d=""
               fill-opacity="0.4"
               id="path68-8-4"
               style="stroke:#33a39e;stroke-width:18.8976;stroke-dasharray:none;stroke-opacity:1" /><g
               id="g69-5-1"
               style="stroke:#33a39e;stroke-width:18.8976;stroke-dasharray:none;stroke-opacity:1"><path
                 fill="none"
                 stroke="#2d70b3"
                 class="dcg-svg-curve"
                 paint-order="fill stroke markers"
                 d="M 0,204.50951 V 204.50951 L 50.78125,204.34821 69.921875,204.04306 82.324219,203.59718 91.503906,203.01644 98.828125,202.30072 104.98047,201.44233 110.25391,200.44685 114.84375,199.3218 118.94531,198.05598 122.75391,196.60614 126.26953,194.98081 129.49219,193.19932 132.51953,191.22386 135.44922,188.98453 138.28125,186.46202 141.01562,183.63857 143.65234,180.49865 146.28906,176.8866 148.82812,172.89594 151.26953,168.51628 153.51562,163.95322 155.76172,158.81185 157.91016,153.2854 159.96094,147.38796 162.01172,140.8117 164.0625,133.47848 166.01562,125.7111 167.96875,117.09449 169.92188,107.53579 171.875,96.931999 173.82812,85.168855 175.78125,72.1196 177.73437,57.643619 179.6875,41.584921 181.64062,23.770464 183.49609,5.0458464 184.44301,-5.5"
                 stroke-linecap="round"
                 stroke-linejoin="round"
                 stroke-miterlimit="10"
                 stroke-width="2.5"
                 stroke-dasharray="none"
                 id="path69-1-9"
                 style="stroke:#33a39e;stroke-width:18.8976;stroke-dasharray:none;stroke-opacity:1" /></g></g><g
             id="g76-2-5"
             style="stroke:#47dbd6;stroke-width:18.8976;stroke-dasharray:none;stroke-opacity:1"
             transform="matrix(0.45827178,0.26458333,-0.26458333,0.45827178,941.84696,154.67772)"><title
               id="title74-7-4">Expression 5</title><path
               fill="#000000"
               stroke="none"
               paint-order="stroke fill markers"
               d=""
               fill-opacity="0.4"
               id="path74-4-1"
               style="stroke:#47dbd6;stroke-width:18.8976;stroke-dasharray:none;stroke-opacity:1" /><g
               id="g75-4-8"
               style="stroke:#47dbd6;stroke-width:18.8976;stroke-dasharray:none;stroke-opacity:1"><path
                 fill="none"
                 stroke="#000000"
                 class="dcg-svg-curve"
                 paint-order="fill stroke markers"
                 d="M 0,204.51824 V 204.51824 L 73.4375,204.37709 94.140625,204.08841 107.03125,203.66285 116.50391,203.10147 124.02344,202.40434 130.27344,201.57075 135.64453,200.59649 140.33203,199.4867 144.53125,198.22846 148.33984,196.8173 151.85547,195.23534 155.07812,193.50138 158.10547,191.57862 161.03516,189.39903 163.86719,186.94382 166.60156,184.1957 169.23828,181.13954 171.875,177.62387 174.41406,173.73968 176.85547,169.47686 179.19922,164.83015 181.44531,159.79992 183.59375,154.39294 185.74219,148.33222 187.79297,141.86464 189.84375,134.65262 191.79687,127.01362 193.75,118.53942 195.70312,109.1387 197.65625,98.710163 199.60937,87.141433 201.5625,74.307847 203.51562,60.071116 205.46875,44.277826 207.42187,26.757795 209.375,7.322229 210.53961,-5.5"
                 stroke-linecap="round"
                 stroke-linejoin="round"
                 stroke-miterlimit="10"
                 stroke-width="2.5"
                 stroke-dasharray="none"
                 id="path75-7-3"
                 style="stroke:#47dbd6;stroke-width:18.8976;stroke-dasharray:none;stroke-opacity:1" /></g></g><g
             id="g80-6-3"
             style="stroke:#35a6a2;stroke-width:18.8976;stroke-dasharray:none;stroke-opacity:1"
             transform="matrix(0.45827178,0.26458333,-0.26458333,0.45827178,939.33554,164.48565)"><title
               id="title78-3-2">Expression 7</title><path
               fill="#2d70b3"
               stroke="none"
               paint-order="stroke fill markers"
               d=""
               fill-opacity="0.4"
               id="path78-5-1"
               style="stroke:#35a6a2;stroke-width:18.8976;stroke-dasharray:none;stroke-opacity:1" /><g
               id="g79-3-7"
               style="stroke:#35a6a2;stroke-width:18.8976;stroke-dasharray:none;stroke-opacity:1"><path
                 fill="none"
                 stroke="#2d70b3"
                 class="dcg-svg-curve"
                 paint-order="fill stroke markers"
                 d="M 0,204.52057 V 204.52057 L 102.34375,204.38733 123.63281,204.10649 136.81641,203.6858 146.38672,203.13224 154.00391,202.43945 160.35156,201.60459 165.72266,200.64151 170.41016,199.54445 174.60937,198.30065 178.41797,196.90568 181.93359,195.34186 185.25391,193.57113 188.37891,191.59364 191.30859,189.41659 194.14062,186.96422 196.875,184.21929 199.51172,181.16669 202.14844,177.65509 204.6875,173.77541 207.12891,169.51754 209.47266,164.87622 211.71875,159.85184 213.86719,154.45113 216.01562,148.39745 218.06641,141.93738 220.11719,134.73373 222.07031,127.1036 224.02344,118.63924 225.97656,109.24943 227.92969,98.832996 229.88281,87.277695 231.83594,74.459008 233.78906,60.238803 235.74219,44.463848 237.69531,26.964155 239.64844,7.5511515 240.83522,-5.5"
                 stroke-linecap="round"
                 stroke-linejoin="round"
                 stroke-miterlimit="10"
                 stroke-width="2.5"
                 stroke-dasharray="none"
                 id="path79-3-1"
                 style="stroke:#35a6a2;stroke-width:18.8976;stroke-dasharray:none;stroke-opacity:1" /></g></g></g><path
           id="path1-7"
           style="fill:#000000;fill-opacity:0.185315;stroke-width:2.64583;stroke-linecap:round"
           d="M 936.40566,237.16648 C 908.42127,237.16657 885.73546,259.85238 885.73537,287.83677 885.73545,315.82117 908.42127,338.50698 936.40566,338.50707 937.4272,338.46508 938.44725,338.39218 939.46438,338.28847 920.75318,336.53138 906.19649,314.48236 906.15635,287.83677 906.19385,260.80667 921.15635,238.57738 940.1584,237.32099 938.90982,237.22313 937.65805,237.17159 936.40566,237.16648 Z"
           sodipodi:nodetypes="ccccccc" /></g></g></g></svg>
