<?xml version="1.0" encoding="UTF-8" standalone="no"?>
<!-- Created with Inkscape (http://www.inkscape.org/) -->

<svg
   width="101.34097mm"
   height="101.34093mm"
   viewBox="0 0 101.34098 101.34093"
   version="1.1"
   id="svg1"
   inkscape:version="1.3 (0e150ed6c4, 2023-07-21)"
   sodipodi:docname="planets.svg"
   inkscape:export-filename="sineplanet.svg"
   inkscape:export-xdpi="96"
   inkscape:export-ydpi="96"
   xml:space="preserve"
   xmlns:inkscape="http://www.inkscape.org/namespaces/inkscape"
   xmlns:sodipodi="http://sodipodi.sourceforge.net/DTD/sodipodi-0.dtd"
   xmlns="http://www.w3.org/2000/svg"
   xmlns:svg="http://www.w3.org/2000/svg"><sodipodi:namedview
     id="namedview1"
     pagecolor="#ffffff"
     bordercolor="#000000"
     borderopacity="0.25"
     inkscape:showpageshadow="2"
     inkscape:pageopacity="0.0"
     inkscape:pagecheckerboard="0"
     inkscape:deskcolor="#d1d1d1"
     inkscape:document-units="mm"
     inkscape:zoom="0.52347032"
     inkscape:cx="-26.744592"
     inkscape:cy="172.88468"
     inkscape:window-width="1920"
     inkscape:window-height="1009"
     inkscape:window-x="-8"
     inkscape:window-y="-8"
     inkscape:window-maximized="1"
     inkscape:current-layer="layer1"
     showguides="false" /><defs
     id="defs1"><clipPath
       clipPathUnits="userSpaceOnUse"
       id="clipPath35"><path
         id="path35"
         clip-path="none"
         style="fill:#3b6325;stroke-width:2.64583;stroke-linecap:round"
         d="M 423.9172,226.59022 A 50.670452,50.670452 0 0 1 373.24675,277.26068 50.670452,50.670452 0 0 1 322.5763,226.59022 50.670452,50.670452 0 0 1 373.24675,175.91977 50.670452,50.670452 0 0 1 423.9172,226.59022 Z"
         inkscape:export-filename="sineplanet.svg"
         inkscape:export-xdpi="96"
         inkscape:export-ydpi="96" /></clipPath></defs><g
     inkscape:label="Layer 1"
     inkscape:groupmode="layer"
     id="layer1"
     transform="translate(-322.57623,-175.91976)"><path
       id="path1-5-6-7-68"
       clip-path="none"
       style="fill:#3b6325;stroke-width:2.64583;stroke-linecap:round"
       transform="translate(-565.72127,184.92456)"
       d="M 989.63847,41.665665 A 50.670452,50.670452 0 0 1 938.96802,92.336117 50.670452,50.670452 0 0 1 888.29757,41.665665 50.670452,50.670452 0 0 1 938.96802,-9.0047874 50.670452,50.670452 0 0 1 989.63847,41.665665 Z"
       inkscape:export-filename="sineplanet.svg"
       inkscape:export-xdpi="96"
       inkscape:export-ydpi="96" /><g
       id="g34"
       clip-path="url(#clipPath35)"><g
         transform="matrix(0.52916667,0,0,0.52916667,270.6448,56.266705)"
         id="g69-2-8-8"
         style="stroke:#03b300;stroke-width:18.8976;stroke-dasharray:none;stroke-opacity:1"
         clip-path="none"><g
           id="expressions-1f697ac4-6-6"
           style="stroke:#03b300;stroke-width:18.8976;stroke-dasharray:none;stroke-opacity:1"><g
             id="sketch-1f697ac4-12-1"
             style="stroke:#03b300;stroke-width:18.8976;stroke-dasharray:none;stroke-opacity:1"><title
               id="title66-3-8-7">Expression 1</title><path
               fill="#6042a6"
               stroke="none"
               paint-order="stroke fill markers"
               d=""
               fill-opacity="0.4"
               id="path66-4-4-3"
               style="stroke:#03b300;stroke-width:18.8976;stroke-dasharray:none;stroke-opacity:1" /><g
               id="g67-9-4-4"
               style="stroke:#03b300;stroke-width:18.8976;stroke-dasharray:none;stroke-opacity:1"><path
                 fill="none"
                 stroke="#6042a6"
                 class="dcg-svg-curve"
                 paint-order="fill stroke markers"
                 d="M 0,209.77926 V 209.77926 L 5.1757812,214.66817 8.8867187,217.80454 12.011719,220.10343 14.84375,221.85961 17.480469,223.17865 19.921875,224.10503 22.265625,224.71255 24.511719,225.02681 26.757812,225.07425 29.003906,224.85419 31.25,224.36977 33.59375,223.58992 36.035156,222.49256 38.671875,221.00188 41.503906,219.08015 44.628906,216.62554 48.339844,213.34667 53.320312,208.53934 63.867187,198.26121 67.675781,195.00077 70.898437,192.59604 73.730469,190.81065 76.367187,189.46154 78.808594,188.50538 81.152344,187.86797 83.398437,187.52432 85.644531,187.44718 87.890625,187.63765 90.136719,188.09302 92.480469,188.84356 94.921875,189.91199 97.460937,191.31425 100.29297,193.1974 103.41797,195.61607 107.03125,198.77292 111.81641,203.35639 123.53516,214.74651 127.24609,217.87366 130.37109,220.16269 133.20312,221.90853 135.83984,223.21693 138.28125,224.13279 140.625,224.72977 142.87109,225.03368 145.11719,225.07067 147.36328,224.84021 149.60937,224.34559 151.95312,223.55547 154.39453,222.44797 157.03125,220.94719 159.86328,219.01581 163.08594,216.47033 166.89453,213.08371 172.07031,208.06388 181.83594,198.53646 185.74219,195.16593 188.96484,192.73802 191.79687,190.92879 194.43359,189.55508 196.875,188.57449 199.21875,187.91254 201.46484,187.54471 203.71094,187.44311 205.95703,187.60917 208.20312,188.04053 210.54687,188.76684 212.98828,189.81128 215.52734,191.19039 218.26172,192.98103 221.38672,195.36762 225,198.49596 229.6875,202.96126 242.28516,215.1707 245.89844,218.17088 249.02344,220.41654 251.85547,222.117 254.39453,223.33801 256.83594,224.21977 259.17969,224.78264 261.42578,225.05308 263.67187,225.05633 265.91797,224.79233 268.16406,224.26485 270.50781,223.44168 272.94922,222.30163 275.58594,220.76847 278.41797,218.80623 281.64062,216.23143 285.44922,212.8192 290.82031,207.58727 299.90234,198.72413 303.80859,195.33242 307.03125,192.8816 309.96094,190.99147 312.59766,189.60492 315.03906,188.61157 317.38281,187.93678 319.62891,187.55629 321.875,187.44186 324.12109,187.59512 326.36719,188.01388 328.71094,188.72743 331.15234,189.75925 333.69141,191.12616 336.42578,192.90497 339.45312,195.20086 342.96875,198.22101 347.46094,202.47192 361.13281,215.67385 364.64844,218.53745 367.67578,220.6646 370.41016,222.26779 372.94922,223.45523 375.39062,224.3027 377.73437,224.83133 379.98047,225.06824 382.22656,225.03774 384.47266,224.74027 386.71875,224.18005 389.0625,223.324 391.50391,222.15166 394.14062,220.58647 397.07031,218.51985 400,216.15696"
                 stroke-linecap="round"
                 stroke-linejoin="round"
                 stroke-miterlimit="10"
                 stroke-width="2.5"
                 stroke-dasharray="none"
                 id="path67-2-9-5"
                 style="stroke:#03b300;stroke-width:18.8976;stroke-dasharray:none;stroke-opacity:1" /></g></g></g><g
           id="labels-1f697ac4-0-4"
           style="stroke:#03b300;stroke-width:18.8976;stroke-dasharray:none;stroke-opacity:1" /><g
           id="g68-5-0-9"
           style="stroke:#03b300;stroke-width:18.8976;stroke-dasharray:none;stroke-opacity:1" /></g><g
         transform="matrix(0.52916667,0,0,0.52916667,270.8676,66.120675)"
         id="g69-2-2-1-3"
         style="stroke:#03a700;stroke-width:18.8976;stroke-dasharray:none;stroke-opacity:1"
         clip-path="none"><g
           id="expressions-1f697ac4-2-7-2"
           style="stroke:#03a700;stroke-width:18.8976;stroke-dasharray:none;stroke-opacity:1"><g
             id="sketch-1f697ac4-1-4-9"
             style="stroke:#03a700;stroke-width:18.8976;stroke-dasharray:none;stroke-opacity:1"><title
               id="title66-3-9-0-0">Expression 1</title><path
               fill="#6042a6"
               stroke="none"
               paint-order="stroke fill markers"
               d=""
               fill-opacity="0.4"
               id="path66-4-5-2-4"
               style="stroke:#03a700;stroke-width:18.8976;stroke-dasharray:none;stroke-opacity:1" /><g
               id="g67-9-7-3-7"
               style="stroke:#03a700;stroke-width:18.8976;stroke-dasharray:none;stroke-opacity:1"><path
                 fill="none"
                 stroke="#6042a6"
                 class="dcg-svg-curve"
                 paint-order="fill stroke markers"
                 d="M 0,209.77926 V 209.77926 L 5.1757812,214.66817 8.8867187,217.80454 12.011719,220.10343 14.84375,221.85961 17.480469,223.17865 19.921875,224.10503 22.265625,224.71255 24.511719,225.02681 26.757812,225.07425 29.003906,224.85419 31.25,224.36977 33.59375,223.58992 36.035156,222.49256 38.671875,221.00188 41.503906,219.08015 44.628906,216.62554 48.339844,213.34667 53.320312,208.53934 63.867187,198.26121 67.675781,195.00077 70.898437,192.59604 73.730469,190.81065 76.367187,189.46154 78.808594,188.50538 81.152344,187.86797 83.398437,187.52432 85.644531,187.44718 87.890625,187.63765 90.136719,188.09302 92.480469,188.84356 94.921875,189.91199 97.460937,191.31425 100.29297,193.1974 103.41797,195.61607 107.03125,198.77292 111.81641,203.35639 123.53516,214.74651 127.24609,217.87366 130.37109,220.16269 133.20312,221.90853 135.83984,223.21693 138.28125,224.13279 140.625,224.72977 142.87109,225.03368 145.11719,225.07067 147.36328,224.84021 149.60937,224.34559 151.95312,223.55547 154.39453,222.44797 157.03125,220.94719 159.86328,219.01581 163.08594,216.47033 166.89453,213.08371 172.07031,208.06388 181.83594,198.53646 185.74219,195.16593 188.96484,192.73802 191.79687,190.92879 194.43359,189.55508 196.875,188.57449 199.21875,187.91254 201.46484,187.54471 203.71094,187.44311 205.95703,187.60917 208.20312,188.04053 210.54687,188.76684 212.98828,189.81128 215.52734,191.19039 218.26172,192.98103 221.38672,195.36762 225,198.49596 229.6875,202.96126 242.28516,215.1707 245.89844,218.17088 249.02344,220.41654 251.85547,222.117 254.39453,223.33801 256.83594,224.21977 259.17969,224.78264 261.42578,225.05308 263.67187,225.05633 265.91797,224.79233 268.16406,224.26485 270.50781,223.44168 272.94922,222.30163 275.58594,220.76847 278.41797,218.80623 281.64062,216.23143 285.44922,212.8192 290.82031,207.58727 299.90234,198.72413 303.80859,195.33242 307.03125,192.8816 309.96094,190.99147 312.59766,189.60492 315.03906,188.61157 317.38281,187.93678 319.62891,187.55629 321.875,187.44186 324.12109,187.59512 326.36719,188.01388 328.71094,188.72743 331.15234,189.75925 333.69141,191.12616 336.42578,192.90497 339.45312,195.20086 342.96875,198.22101 347.46094,202.47192 361.13281,215.67385 364.64844,218.53745 367.67578,220.6646 370.41016,222.26779 372.94922,223.45523 375.39062,224.3027 377.73437,224.83133 379.98047,225.06824 382.22656,225.03774 384.47266,224.74027 386.71875,224.18005 389.0625,223.324 391.50391,222.15166 394.14062,220.58647 397.07031,218.51985 400,216.15696"
                 stroke-linecap="round"
                 stroke-linejoin="round"
                 stroke-miterlimit="10"
                 stroke-width="2.5"
                 stroke-dasharray="none"
                 id="path67-2-4-2-0"
                 style="stroke:#03a700;stroke-width:18.8976;stroke-dasharray:none;stroke-opacity:1" /></g></g></g><g
           id="labels-1f697ac4-3-7-7"
           style="stroke:#03a700;stroke-width:18.8976;stroke-dasharray:none;stroke-opacity:1" /><g
           id="g68-5-3-9-3"
           style="stroke:#03a700;stroke-width:18.8976;stroke-dasharray:none;stroke-opacity:1" /></g><g
         transform="matrix(0.52916667,0,0,0.52916667,271.28201,75.954945)"
         id="g69-2-2-8-3-5"
         style="stroke:#679156;stroke-width:18.8976;stroke-dasharray:none;stroke-opacity:1"
         clip-path="none"><g
           id="expressions-1f697ac4-2-6-1-8"
           style="stroke:#679156;stroke-width:18.8976;stroke-dasharray:none;stroke-opacity:1"><g
             id="sketch-1f697ac4-1-6-4-7"
             style="stroke:#679156;stroke-width:18.8976;stroke-dasharray:none;stroke-opacity:1"><title
               id="title66-3-9-8-0-2">Expression 1</title><path
               fill="#6042a6"
               stroke="none"
               paint-order="stroke fill markers"
               d=""
               fill-opacity="0.4"
               id="path66-4-5-3-3-9"
               style="stroke:#679156;stroke-width:18.8976;stroke-dasharray:none;stroke-opacity:1" /><g
               id="g67-9-7-6-7-7"
               style="stroke:#679156;stroke-width:18.8976;stroke-dasharray:none;stroke-opacity:1"><path
                 fill="none"
                 stroke="#6042a6"
                 class="dcg-svg-curve"
                 paint-order="fill stroke markers"
                 d="M 0,209.77926 V 209.77926 L 5.1757812,214.66817 8.8867187,217.80454 12.011719,220.10343 14.84375,221.85961 17.480469,223.17865 19.921875,224.10503 22.265625,224.71255 24.511719,225.02681 26.757812,225.07425 29.003906,224.85419 31.25,224.36977 33.59375,223.58992 36.035156,222.49256 38.671875,221.00188 41.503906,219.08015 44.628906,216.62554 48.339844,213.34667 53.320312,208.53934 63.867187,198.26121 67.675781,195.00077 70.898437,192.59604 73.730469,190.81065 76.367187,189.46154 78.808594,188.50538 81.152344,187.86797 83.398437,187.52432 85.644531,187.44718 87.890625,187.63765 90.136719,188.09302 92.480469,188.84356 94.921875,189.91199 97.460937,191.31425 100.29297,193.1974 103.41797,195.61607 107.03125,198.77292 111.81641,203.35639 123.53516,214.74651 127.24609,217.87366 130.37109,220.16269 133.20312,221.90853 135.83984,223.21693 138.28125,224.13279 140.625,224.72977 142.87109,225.03368 145.11719,225.07067 147.36328,224.84021 149.60937,224.34559 151.95312,223.55547 154.39453,222.44797 157.03125,220.94719 159.86328,219.01581 163.08594,216.47033 166.89453,213.08371 172.07031,208.06388 181.83594,198.53646 185.74219,195.16593 188.96484,192.73802 191.79687,190.92879 194.43359,189.55508 196.875,188.57449 199.21875,187.91254 201.46484,187.54471 203.71094,187.44311 205.95703,187.60917 208.20312,188.04053 210.54687,188.76684 212.98828,189.81128 215.52734,191.19039 218.26172,192.98103 221.38672,195.36762 225,198.49596 229.6875,202.96126 242.28516,215.1707 245.89844,218.17088 249.02344,220.41654 251.85547,222.117 254.39453,223.33801 256.83594,224.21977 259.17969,224.78264 261.42578,225.05308 263.67187,225.05633 265.91797,224.79233 268.16406,224.26485 270.50781,223.44168 272.94922,222.30163 275.58594,220.76847 278.41797,218.80623 281.64062,216.23143 285.44922,212.8192 290.82031,207.58727 299.90234,198.72413 303.80859,195.33242 307.03125,192.8816 309.96094,190.99147 312.59766,189.60492 315.03906,188.61157 317.38281,187.93678 319.62891,187.55629 321.875,187.44186 324.12109,187.59512 326.36719,188.01388 328.71094,188.72743 331.15234,189.75925 333.69141,191.12616 336.42578,192.90497 339.45312,195.20086 342.96875,198.22101 347.46094,202.47192 361.13281,215.67385 364.64844,218.53745 367.67578,220.6646 370.41016,222.26779 372.94922,223.45523 375.39062,224.3027 377.73437,224.83133 379.98047,225.06824 382.22656,225.03774 384.47266,224.74027 386.71875,224.18005 389.0625,223.324 391.50391,222.15166 394.14062,220.58647 397.07031,218.51985 400,216.15696"
                 stroke-linecap="round"
                 stroke-linejoin="round"
                 stroke-miterlimit="10"
                 stroke-width="2.5"
                 stroke-dasharray="none"
                 id="path67-2-4-3-1-6"
                 style="stroke:#679156;stroke-width:18.8976;stroke-dasharray:none;stroke-opacity:1" /></g></g></g><g
           id="labels-1f697ac4-3-2-4-8"
           style="stroke:#679156;stroke-width:18.8976;stroke-dasharray:none;stroke-opacity:1" /><g
           id="g68-5-3-4-1-7"
           style="stroke:#679156;stroke-width:18.8976;stroke-dasharray:none;stroke-opacity:1" /></g><g
         transform="matrix(0.52916667,0,0,0.52916667,270.93314,94.887585)"
         id="g69-2-2-8-0-0-2-2"
         style="stroke:#589657;stroke-width:18.8976;stroke-dasharray:none;stroke-opacity:1"
         clip-path="none"><g
           id="expressions-1f697ac4-2-6-2-2-4-4"
           style="stroke:#589657;stroke-width:18.8976;stroke-dasharray:none;stroke-opacity:1"><g
             id="sketch-1f697ac4-1-6-9-3-4-1"
             style="stroke:#589657;stroke-width:18.8976;stroke-dasharray:none;stroke-opacity:1"><title
               id="title66-3-9-8-4-4-3-7">Expression 1</title><path
               fill="#6042a6"
               stroke="none"
               paint-order="stroke fill markers"
               d=""
               fill-opacity="0.4"
               id="path66-4-5-3-5-9-7-7"
               style="stroke:#589657;stroke-width:18.8976;stroke-dasharray:none;stroke-opacity:1" /><g
               id="g67-9-7-6-8-5-1-2"
               style="stroke:#589657;stroke-width:18.8976;stroke-dasharray:none;stroke-opacity:1"><path
                 fill="none"
                 stroke="#6042a6"
                 class="dcg-svg-curve"
                 paint-order="fill stroke markers"
                 d="M 0,209.77926 V 209.77926 L 5.1757812,214.66817 8.8867187,217.80454 12.011719,220.10343 14.84375,221.85961 17.480469,223.17865 19.921875,224.10503 22.265625,224.71255 24.511719,225.02681 26.757812,225.07425 29.003906,224.85419 31.25,224.36977 33.59375,223.58992 36.035156,222.49256 38.671875,221.00188 41.503906,219.08015 44.628906,216.62554 48.339844,213.34667 53.320312,208.53934 63.867187,198.26121 67.675781,195.00077 70.898437,192.59604 73.730469,190.81065 76.367187,189.46154 78.808594,188.50538 81.152344,187.86797 83.398437,187.52432 85.644531,187.44718 87.890625,187.63765 90.136719,188.09302 92.480469,188.84356 94.921875,189.91199 97.460937,191.31425 100.29297,193.1974 103.41797,195.61607 107.03125,198.77292 111.81641,203.35639 123.53516,214.74651 127.24609,217.87366 130.37109,220.16269 133.20312,221.90853 135.83984,223.21693 138.28125,224.13279 140.625,224.72977 142.87109,225.03368 145.11719,225.07067 147.36328,224.84021 149.60937,224.34559 151.95312,223.55547 154.39453,222.44797 157.03125,220.94719 159.86328,219.01581 163.08594,216.47033 166.89453,213.08371 172.07031,208.06388 181.83594,198.53646 185.74219,195.16593 188.96484,192.73802 191.79687,190.92879 194.43359,189.55508 196.875,188.57449 199.21875,187.91254 201.46484,187.54471 203.71094,187.44311 205.95703,187.60917 208.20312,188.04053 210.54687,188.76684 212.98828,189.81128 215.52734,191.19039 218.26172,192.98103 221.38672,195.36762 225,198.49596 229.6875,202.96126 242.28516,215.1707 245.89844,218.17088 249.02344,220.41654 251.85547,222.117 254.39453,223.33801 256.83594,224.21977 259.17969,224.78264 261.42578,225.05308 263.67187,225.05633 265.91797,224.79233 268.16406,224.26485 270.50781,223.44168 272.94922,222.30163 275.58594,220.76847 278.41797,218.80623 281.64062,216.23143 285.44922,212.8192 290.82031,207.58727 299.90234,198.72413 303.80859,195.33242 307.03125,192.8816 309.96094,190.99147 312.59766,189.60492 315.03906,188.61157 317.38281,187.93678 319.62891,187.55629 321.875,187.44186 324.12109,187.59512 326.36719,188.01388 328.71094,188.72743 331.15234,189.75925 333.69141,191.12616 336.42578,192.90497 339.45312,195.20086 342.96875,198.22101 347.46094,202.47192 361.13281,215.67385 364.64844,218.53745 367.67578,220.6646 370.41016,222.26779 372.94922,223.45523 375.39062,224.3027 377.73437,224.83133 379.98047,225.06824 382.22656,225.03774 384.47266,224.74027 386.71875,224.18005 389.0625,223.324 391.50391,222.15166 394.14062,220.58647 397.07031,218.51985 400,216.15696"
                 stroke-linecap="round"
                 stroke-linejoin="round"
                 stroke-miterlimit="10"
                 stroke-width="2.5"
                 stroke-dasharray="none"
                 id="path67-2-4-3-4-1-7-3"
                 style="stroke:#589657;stroke-width:18.8976;stroke-dasharray:none;stroke-opacity:1" /></g></g></g><g
           id="labels-1f697ac4-3-2-1-1-4-2"
           style="stroke:#589657;stroke-width:18.8976;stroke-dasharray:none;stroke-opacity:1" /><g
           id="g68-5-3-4-4-7-8-6"
           style="stroke:#589657;stroke-width:18.8976;stroke-dasharray:none;stroke-opacity:1" /></g><g
         transform="matrix(0.52916667,0,0,0.52916667,271.20199,104.98336)"
         id="g69-2-2-8-0-06-6-8"
         style="stroke:#03a700;stroke-width:18.8976;stroke-dasharray:none;stroke-opacity:1"
         clip-path="none"><g
           id="expressions-1f697ac4-2-6-2-1-1-4"
           style="stroke:#03a700;stroke-width:18.8976;stroke-dasharray:none;stroke-opacity:1"><g
             id="sketch-1f697ac4-1-6-9-4-1-5"
             style="stroke:#03a700;stroke-width:18.8976;stroke-dasharray:none;stroke-opacity:1"><title
               id="title66-3-9-8-4-9-3-1">Expression 1</title><path
               fill="#6042a6"
               stroke="none"
               paint-order="stroke fill markers"
               d=""
               fill-opacity="0.4"
               id="path66-4-5-3-5-92-5-3"
               style="stroke:#03a700;stroke-width:18.8976;stroke-dasharray:none;stroke-opacity:1" /><g
               id="g67-9-7-6-8-9-1-1"
               style="stroke:#03a700;stroke-width:18.8976;stroke-dasharray:none;stroke-opacity:1"><path
                 fill="none"
                 stroke="#6042a6"
                 class="dcg-svg-curve"
                 paint-order="fill stroke markers"
                 d="M 0,209.77926 V 209.77926 L 5.1757812,214.66817 8.8867187,217.80454 12.011719,220.10343 14.84375,221.85961 17.480469,223.17865 19.921875,224.10503 22.265625,224.71255 24.511719,225.02681 26.757812,225.07425 29.003906,224.85419 31.25,224.36977 33.59375,223.58992 36.035156,222.49256 38.671875,221.00188 41.503906,219.08015 44.628906,216.62554 48.339844,213.34667 53.320312,208.53934 63.867187,198.26121 67.675781,195.00077 70.898437,192.59604 73.730469,190.81065 76.367187,189.46154 78.808594,188.50538 81.152344,187.86797 83.398437,187.52432 85.644531,187.44718 87.890625,187.63765 90.136719,188.09302 92.480469,188.84356 94.921875,189.91199 97.460937,191.31425 100.29297,193.1974 103.41797,195.61607 107.03125,198.77292 111.81641,203.35639 123.53516,214.74651 127.24609,217.87366 130.37109,220.16269 133.20312,221.90853 135.83984,223.21693 138.28125,224.13279 140.625,224.72977 142.87109,225.03368 145.11719,225.07067 147.36328,224.84021 149.60937,224.34559 151.95312,223.55547 154.39453,222.44797 157.03125,220.94719 159.86328,219.01581 163.08594,216.47033 166.89453,213.08371 172.07031,208.06388 181.83594,198.53646 185.74219,195.16593 188.96484,192.73802 191.79687,190.92879 194.43359,189.55508 196.875,188.57449 199.21875,187.91254 201.46484,187.54471 203.71094,187.44311 205.95703,187.60917 208.20312,188.04053 210.54687,188.76684 212.98828,189.81128 215.52734,191.19039 218.26172,192.98103 221.38672,195.36762 225,198.49596 229.6875,202.96126 242.28516,215.1707 245.89844,218.17088 249.02344,220.41654 251.85547,222.117 254.39453,223.33801 256.83594,224.21977 259.17969,224.78264 261.42578,225.05308 263.67187,225.05633 265.91797,224.79233 268.16406,224.26485 270.50781,223.44168 272.94922,222.30163 275.58594,220.76847 278.41797,218.80623 281.64062,216.23143 285.44922,212.8192 290.82031,207.58727 299.90234,198.72413 303.80859,195.33242 307.03125,192.8816 309.96094,190.99147 312.59766,189.60492 315.03906,188.61157 317.38281,187.93678 319.62891,187.55629 321.875,187.44186 324.12109,187.59512 326.36719,188.01388 328.71094,188.72743 331.15234,189.75925 333.69141,191.12616 336.42578,192.90497 339.45312,195.20086 342.96875,198.22101 347.46094,202.47192 361.13281,215.67385 364.64844,218.53745 367.67578,220.6646 370.41016,222.26779 372.94922,223.45523 375.39062,224.3027 377.73437,224.83133 379.98047,225.06824 382.22656,225.03774 384.47266,224.74027 386.71875,224.18005 389.0625,223.324 391.50391,222.15166 394.14062,220.58647 397.07031,218.51985 400,216.15696"
                 stroke-linecap="round"
                 stroke-linejoin="round"
                 stroke-miterlimit="10"
                 stroke-width="2.5"
                 stroke-dasharray="none"
                 id="path67-2-4-3-4-8-7-8"
                 style="stroke:#03a700;stroke-width:18.8976;stroke-dasharray:none;stroke-opacity:1" /></g></g></g><g
           id="labels-1f697ac4-3-2-1-3-6-0"
           style="stroke:#03a700;stroke-width:18.8976;stroke-dasharray:none;stroke-opacity:1" /><g
           id="g68-5-3-4-4-5-7-9"
           style="stroke:#03a700;stroke-width:18.8976;stroke-dasharray:none;stroke-opacity:1" /></g><g
         transform="matrix(0.52916667,0,0,0.52916667,270.83102,114.49718)"
         id="g69-2-0"
         style="fill:#000000;fill-opacity:0;stroke:#5f9046;stroke-width:18.8976;stroke-dasharray:none;stroke-opacity:1"
         clip-path="none"><g
           id="expressions-1f697ac4-68"
           style="fill:#000000;fill-opacity:0;stroke:#5f9046;stroke-width:18.8976;stroke-dasharray:none;stroke-opacity:1"><g
             id="sketch-1f697ac4-7"
             style="fill:#000000;fill-opacity:0;stroke:#5f9046;stroke-width:18.8976;stroke-dasharray:none;stroke-opacity:1"><title
               id="title66-3-2">Expression 1</title><path
               fill="#6042a6"
               stroke="none"
               paint-order="stroke fill markers"
               d=""
               fill-opacity="0.4"
               id="path66-4-2"
               style="fill:#000000;fill-opacity:0;stroke:#5f9046;stroke-width:18.8976;stroke-dasharray:none;stroke-opacity:1" /><g
               id="g67-9-9"
               style="fill:#000000;fill-opacity:0;stroke:#5f9046;stroke-width:18.8976;stroke-dasharray:none;stroke-opacity:1"><path
                 fill="none"
                 stroke="#6042a6"
                 class="dcg-svg-curve"
                 paint-order="fill stroke markers"
                 d="M 0,209.77926 V 209.77926 L 5.1757812,214.66817 8.8867187,217.80454 12.011719,220.10343 14.84375,221.85961 17.480469,223.17865 19.921875,224.10503 22.265625,224.71255 24.511719,225.02681 26.757812,225.07425 29.003906,224.85419 31.25,224.36977 33.59375,223.58992 36.035156,222.49256 38.671875,221.00188 41.503906,219.08015 44.628906,216.62554 48.339844,213.34667 53.320312,208.53934 63.867187,198.26121 67.675781,195.00077 70.898437,192.59604 73.730469,190.81065 76.367187,189.46154 78.808594,188.50538 81.152344,187.86797 83.398437,187.52432 85.644531,187.44718 87.890625,187.63765 90.136719,188.09302 92.480469,188.84356 94.921875,189.91199 97.460937,191.31425 100.29297,193.1974 103.41797,195.61607 107.03125,198.77292 111.81641,203.35639 123.53516,214.74651 127.24609,217.87366 130.37109,220.16269 133.20312,221.90853 135.83984,223.21693 138.28125,224.13279 140.625,224.72977 142.87109,225.03368 145.11719,225.07067 147.36328,224.84021 149.60937,224.34559 151.95312,223.55547 154.39453,222.44797 157.03125,220.94719 159.86328,219.01581 163.08594,216.47033 166.89453,213.08371 172.07031,208.06388 181.83594,198.53646 185.74219,195.16593 188.96484,192.73802 191.79687,190.92879 194.43359,189.55508 196.875,188.57449 199.21875,187.91254 201.46484,187.54471 203.71094,187.44311 205.95703,187.60917 208.20312,188.04053 210.54687,188.76684 212.98828,189.81128 215.52734,191.19039 218.26172,192.98103 221.38672,195.36762 225,198.49596 229.6875,202.96126 242.28516,215.1707 245.89844,218.17088 249.02344,220.41654 251.85547,222.117 254.39453,223.33801 256.83594,224.21977 259.17969,224.78264 261.42578,225.05308 263.67187,225.05633 265.91797,224.79233 268.16406,224.26485 270.50781,223.44168 272.94922,222.30163 275.58594,220.76847 278.41797,218.80623 281.64062,216.23143 285.44922,212.8192 290.82031,207.58727 299.90234,198.72413 303.80859,195.33242 307.03125,192.8816 309.96094,190.99147 312.59766,189.60492 315.03906,188.61157 317.38281,187.93678 319.62891,187.55629 321.875,187.44186 324.12109,187.59512 326.36719,188.01388 328.71094,188.72743 331.15234,189.75925 333.69141,191.12616 336.42578,192.90497 339.45312,195.20086 342.96875,198.22101 347.46094,202.47192 361.13281,215.67385 364.64844,218.53745 367.67578,220.6646 370.41016,222.26779 372.94922,223.45523 375.39062,224.3027 377.73437,224.83133 379.98047,225.06824 382.22656,225.03774 384.47266,224.74027 386.71875,224.18005 389.0625,223.324 391.50391,222.15166 394.14062,220.58647 397.07031,218.51985 400,216.15696"
                 stroke-linecap="round"
                 stroke-linejoin="round"
                 stroke-miterlimit="10"
                 stroke-width="2.5"
                 stroke-dasharray="none"
                 id="path67-2-5"
                 style="fill:#000000;fill-opacity:0;stroke:#5f9046;stroke-width:18.8976;stroke-dasharray:none;stroke-opacity:1" /></g></g></g><g
           id="labels-1f697ac4-2"
           style="fill:#000000;fill-opacity:0;stroke:#5f9046;stroke-width:18.8976;stroke-dasharray:none;stroke-opacity:1" /><g
           id="g68-5-1"
           style="fill:#000000;fill-opacity:0;stroke:#5f9046;stroke-width:18.8976;stroke-dasharray:none;stroke-opacity:1" /></g><g
         transform="matrix(0.52916667,0,0,0.52916667,271.05382,124.35114)"
         id="g69-2-2-18"
         style="stroke:#03a700;stroke-width:18.8976;stroke-dasharray:none;stroke-opacity:1"
         clip-path="none"><g
           id="expressions-1f697ac4-2-60"
           style="stroke:#03a700;stroke-width:18.8976;stroke-dasharray:none;stroke-opacity:1"><g
             id="sketch-1f697ac4-1-60"
             style="stroke:#03a700;stroke-width:18.8976;stroke-dasharray:none;stroke-opacity:1"><title
               id="title66-3-9-9">Expression 1</title><path
               fill="#6042a6"
               stroke="none"
               paint-order="stroke fill markers"
               d=""
               fill-opacity="0.4"
               id="path66-4-5-5"
               style="stroke:#03a700;stroke-width:18.8976;stroke-dasharray:none;stroke-opacity:1" /><g
               id="g67-9-7-2"
               style="stroke:#03a700;stroke-width:18.8976;stroke-dasharray:none;stroke-opacity:1"><path
                 fill="none"
                 stroke="#6042a6"
                 class="dcg-svg-curve"
                 paint-order="fill stroke markers"
                 d="M 0,209.77926 V 209.77926 L 5.1757812,214.66817 8.8867187,217.80454 12.011719,220.10343 14.84375,221.85961 17.480469,223.17865 19.921875,224.10503 22.265625,224.71255 24.511719,225.02681 26.757812,225.07425 29.003906,224.85419 31.25,224.36977 33.59375,223.58992 36.035156,222.49256 38.671875,221.00188 41.503906,219.08015 44.628906,216.62554 48.339844,213.34667 53.320312,208.53934 63.867187,198.26121 67.675781,195.00077 70.898437,192.59604 73.730469,190.81065 76.367187,189.46154 78.808594,188.50538 81.152344,187.86797 83.398437,187.52432 85.644531,187.44718 87.890625,187.63765 90.136719,188.09302 92.480469,188.84356 94.921875,189.91199 97.460937,191.31425 100.29297,193.1974 103.41797,195.61607 107.03125,198.77292 111.81641,203.35639 123.53516,214.74651 127.24609,217.87366 130.37109,220.16269 133.20312,221.90853 135.83984,223.21693 138.28125,224.13279 140.625,224.72977 142.87109,225.03368 145.11719,225.07067 147.36328,224.84021 149.60937,224.34559 151.95312,223.55547 154.39453,222.44797 157.03125,220.94719 159.86328,219.01581 163.08594,216.47033 166.89453,213.08371 172.07031,208.06388 181.83594,198.53646 185.74219,195.16593 188.96484,192.73802 191.79687,190.92879 194.43359,189.55508 196.875,188.57449 199.21875,187.91254 201.46484,187.54471 203.71094,187.44311 205.95703,187.60917 208.20312,188.04053 210.54687,188.76684 212.98828,189.81128 215.52734,191.19039 218.26172,192.98103 221.38672,195.36762 225,198.49596 229.6875,202.96126 242.28516,215.1707 245.89844,218.17088 249.02344,220.41654 251.85547,222.117 254.39453,223.33801 256.83594,224.21977 259.17969,224.78264 261.42578,225.05308 263.67187,225.05633 265.91797,224.79233 268.16406,224.26485 270.50781,223.44168 272.94922,222.30163 275.58594,220.76847 278.41797,218.80623 281.64062,216.23143 285.44922,212.8192 290.82031,207.58727 299.90234,198.72413 303.80859,195.33242 307.03125,192.8816 309.96094,190.99147 312.59766,189.60492 315.03906,188.61157 317.38281,187.93678 319.62891,187.55629 321.875,187.44186 324.12109,187.59512 326.36719,188.01388 328.71094,188.72743 331.15234,189.75925 333.69141,191.12616 336.42578,192.90497 339.45312,195.20086 342.96875,198.22101 347.46094,202.47192 361.13281,215.67385 364.64844,218.53745 367.67578,220.6646 370.41016,222.26779 372.94922,223.45523 375.39062,224.3027 377.73437,224.83133 379.98047,225.06824 382.22656,225.03774 384.47266,224.74027 386.71875,224.18005 389.0625,223.324 391.50391,222.15166 394.14062,220.58647 397.07031,218.51985 400,216.15696"
                 stroke-linecap="round"
                 stroke-linejoin="round"
                 stroke-miterlimit="10"
                 stroke-width="2.5"
                 stroke-dasharray="none"
                 id="path67-2-4-5"
                 style="stroke:#03a700;stroke-width:18.8976;stroke-dasharray:none;stroke-opacity:1" /></g></g></g><g
           id="labels-1f697ac4-3-35"
           style="stroke:#03a700;stroke-width:18.8976;stroke-dasharray:none;stroke-opacity:1" /><g
           id="g68-5-3-7"
           style="stroke:#03a700;stroke-width:18.8976;stroke-dasharray:none;stroke-opacity:1" /></g><g
         transform="matrix(0.52916667,0,0,0.52916667,271.46823,134.1854)"
         id="g69-2-2-8-2"
         style="stroke:#4ba749;stroke-width:18.8976;stroke-dasharray:none;stroke-opacity:1"
         clip-path="none"><g
           id="expressions-1f697ac4-2-6-14"
           style="stroke:#4ba749;stroke-width:18.8976;stroke-dasharray:none;stroke-opacity:1"><g
             id="sketch-1f697ac4-1-6-7"
             style="stroke:#4ba749;stroke-width:18.8976;stroke-dasharray:none;stroke-opacity:1"><title
               id="title66-3-9-8-3">Expression 1</title><path
               fill="#6042a6"
               stroke="none"
               paint-order="stroke fill markers"
               d=""
               fill-opacity="0.4"
               id="path66-4-5-3-38"
               style="stroke:#4ba749;stroke-width:18.8976;stroke-dasharray:none;stroke-opacity:1" /><g
               id="g67-9-7-6-6"
               style="stroke:#4ba749;stroke-width:18.8976;stroke-dasharray:none;stroke-opacity:1"><path
                 fill="none"
                 stroke="#6042a6"
                 class="dcg-svg-curve"
                 paint-order="fill stroke markers"
                 d="M 0,209.77926 V 209.77926 L 5.1757812,214.66817 8.8867187,217.80454 12.011719,220.10343 14.84375,221.85961 17.480469,223.17865 19.921875,224.10503 22.265625,224.71255 24.511719,225.02681 26.757812,225.07425 29.003906,224.85419 31.25,224.36977 33.59375,223.58992 36.035156,222.49256 38.671875,221.00188 41.503906,219.08015 44.628906,216.62554 48.339844,213.34667 53.320312,208.53934 63.867187,198.26121 67.675781,195.00077 70.898437,192.59604 73.730469,190.81065 76.367187,189.46154 78.808594,188.50538 81.152344,187.86797 83.398437,187.52432 85.644531,187.44718 87.890625,187.63765 90.136719,188.09302 92.480469,188.84356 94.921875,189.91199 97.460937,191.31425 100.29297,193.1974 103.41797,195.61607 107.03125,198.77292 111.81641,203.35639 123.53516,214.74651 127.24609,217.87366 130.37109,220.16269 133.20312,221.90853 135.83984,223.21693 138.28125,224.13279 140.625,224.72977 142.87109,225.03368 145.11719,225.07067 147.36328,224.84021 149.60937,224.34559 151.95312,223.55547 154.39453,222.44797 157.03125,220.94719 159.86328,219.01581 163.08594,216.47033 166.89453,213.08371 172.07031,208.06388 181.83594,198.53646 185.74219,195.16593 188.96484,192.73802 191.79687,190.92879 194.43359,189.55508 196.875,188.57449 199.21875,187.91254 201.46484,187.54471 203.71094,187.44311 205.95703,187.60917 208.20312,188.04053 210.54687,188.76684 212.98828,189.81128 215.52734,191.19039 218.26172,192.98103 221.38672,195.36762 225,198.49596 229.6875,202.96126 242.28516,215.1707 245.89844,218.17088 249.02344,220.41654 251.85547,222.117 254.39453,223.33801 256.83594,224.21977 259.17969,224.78264 261.42578,225.05308 263.67187,225.05633 265.91797,224.79233 268.16406,224.26485 270.50781,223.44168 272.94922,222.30163 275.58594,220.76847 278.41797,218.80623 281.64062,216.23143 285.44922,212.8192 290.82031,207.58727 299.90234,198.72413 303.80859,195.33242 307.03125,192.8816 309.96094,190.99147 312.59766,189.60492 315.03906,188.61157 317.38281,187.93678 319.62891,187.55629 321.875,187.44186 324.12109,187.59512 326.36719,188.01388 328.71094,188.72743 331.15234,189.75925 333.69141,191.12616 336.42578,192.90497 339.45312,195.20086 342.96875,198.22101 347.46094,202.47192 361.13281,215.67385 364.64844,218.53745 367.67578,220.6646 370.41016,222.26779 372.94922,223.45523 375.39062,224.3027 377.73437,224.83133 379.98047,225.06824 382.22656,225.03774 384.47266,224.74027 386.71875,224.18005 389.0625,223.324 391.50391,222.15166 394.14062,220.58647 397.07031,218.51985 400,216.15696"
                 stroke-linecap="round"
                 stroke-linejoin="round"
                 stroke-miterlimit="10"
                 stroke-width="2.5"
                 stroke-dasharray="none"
                 id="path67-2-4-3-9"
                 style="stroke:#4ba749;stroke-width:18.8976;stroke-dasharray:none;stroke-opacity:1" /></g></g></g><g
           id="labels-1f697ac4-3-2-40"
           style="stroke:#4ba749;stroke-width:18.8976;stroke-dasharray:none;stroke-opacity:1" /><g
           id="g68-5-3-4-3"
           style="stroke:#4ba749;stroke-width:18.8976;stroke-dasharray:none;stroke-opacity:1" /></g><g
         transform="matrix(0.52916667,0,0,0.52916667,271.11936,153.11804)"
         id="g69-2-2-8-0-0-9"
         style="stroke:#5f9046;stroke-width:18.8976;stroke-dasharray:none;stroke-opacity:1"
         clip-path="none"><g
           id="expressions-1f697ac4-2-6-2-2-8"
           style="stroke:#5f9046;stroke-width:18.8976;stroke-dasharray:none;stroke-opacity:1"><g
             id="sketch-1f697ac4-1-6-9-3-7"
             style="stroke:#5f9046;stroke-width:18.8976;stroke-dasharray:none;stroke-opacity:1"><title
               id="title66-3-9-8-4-4-33">Expression 1</title><path
               fill="#6042a6"
               stroke="none"
               paint-order="stroke fill markers"
               d=""
               fill-opacity="0.4"
               id="path66-4-5-3-5-9-74"
               style="stroke:#5f9046;stroke-width:18.8976;stroke-dasharray:none;stroke-opacity:1" /><g
               id="g67-9-7-6-8-5-2"
               style="stroke:#5f9046;stroke-width:18.8976;stroke-dasharray:none;stroke-opacity:1"><path
                 fill="none"
                 stroke="#6042a6"
                 class="dcg-svg-curve"
                 paint-order="fill stroke markers"
                 d="M 0,209.77926 V 209.77926 L 5.1757812,214.66817 8.8867187,217.80454 12.011719,220.10343 14.84375,221.85961 17.480469,223.17865 19.921875,224.10503 22.265625,224.71255 24.511719,225.02681 26.757812,225.07425 29.003906,224.85419 31.25,224.36977 33.59375,223.58992 36.035156,222.49256 38.671875,221.00188 41.503906,219.08015 44.628906,216.62554 48.339844,213.34667 53.320312,208.53934 63.867187,198.26121 67.675781,195.00077 70.898437,192.59604 73.730469,190.81065 76.367187,189.46154 78.808594,188.50538 81.152344,187.86797 83.398437,187.52432 85.644531,187.44718 87.890625,187.63765 90.136719,188.09302 92.480469,188.84356 94.921875,189.91199 97.460937,191.31425 100.29297,193.1974 103.41797,195.61607 107.03125,198.77292 111.81641,203.35639 123.53516,214.74651 127.24609,217.87366 130.37109,220.16269 133.20312,221.90853 135.83984,223.21693 138.28125,224.13279 140.625,224.72977 142.87109,225.03368 145.11719,225.07067 147.36328,224.84021 149.60937,224.34559 151.95312,223.55547 154.39453,222.44797 157.03125,220.94719 159.86328,219.01581 163.08594,216.47033 166.89453,213.08371 172.07031,208.06388 181.83594,198.53646 185.74219,195.16593 188.96484,192.73802 191.79687,190.92879 194.43359,189.55508 196.875,188.57449 199.21875,187.91254 201.46484,187.54471 203.71094,187.44311 205.95703,187.60917 208.20312,188.04053 210.54687,188.76684 212.98828,189.81128 215.52734,191.19039 218.26172,192.98103 221.38672,195.36762 225,198.49596 229.6875,202.96126 242.28516,215.1707 245.89844,218.17088 249.02344,220.41654 251.85547,222.117 254.39453,223.33801 256.83594,224.21977 259.17969,224.78264 261.42578,225.05308 263.67187,225.05633 265.91797,224.79233 268.16406,224.26485 270.50781,223.44168 272.94922,222.30163 275.58594,220.76847 278.41797,218.80623 281.64062,216.23143 285.44922,212.8192 290.82031,207.58727 299.90234,198.72413 303.80859,195.33242 307.03125,192.8816 309.96094,190.99147 312.59766,189.60492 315.03906,188.61157 317.38281,187.93678 319.62891,187.55629 321.875,187.44186 324.12109,187.59512 326.36719,188.01388 328.71094,188.72743 331.15234,189.75925 333.69141,191.12616 336.42578,192.90497 339.45312,195.20086 342.96875,198.22101 347.46094,202.47192 361.13281,215.67385 364.64844,218.53745 367.67578,220.6646 370.41016,222.26779 372.94922,223.45523 375.39062,224.3027 377.73437,224.83133 379.98047,225.06824 382.22656,225.03774 384.47266,224.74027 386.71875,224.18005 389.0625,223.324 391.50391,222.15166 394.14062,220.58647 397.07031,218.51985 400,216.15696"
                 stroke-linecap="round"
                 stroke-linejoin="round"
                 stroke-miterlimit="10"
                 stroke-width="2.5"
                 stroke-dasharray="none"
                 id="path67-2-4-3-4-1-5"
                 style="stroke:#5f9046;stroke-width:18.8976;stroke-dasharray:none;stroke-opacity:1" /></g></g></g><g
           id="labels-1f697ac4-3-2-1-1-1"
           style="stroke:#5f9046;stroke-width:18.8976;stroke-dasharray:none;stroke-opacity:1" /><g
           id="g68-5-3-4-4-7-83"
           style="stroke:#5f9046;stroke-width:18.8976;stroke-dasharray:none;stroke-opacity:1" /></g><g
         transform="matrix(0.52916667,0,0,0.52916667,271.38821,163.21381)"
         id="g69-2-2-8-0-06-9"
         style="stroke:#3fb900;stroke-width:18.8976;stroke-dasharray:none;stroke-opacity:1"
         clip-path="none"><g
           id="expressions-1f697ac4-2-6-2-1-6"
           style="stroke:#3fb900;stroke-width:18.8976;stroke-dasharray:none;stroke-opacity:1"><g
             id="sketch-1f697ac4-1-6-9-4-2"
             style="stroke:#3fb900;stroke-width:18.8976;stroke-dasharray:none;stroke-opacity:1"><title
               id="title66-3-9-8-4-9-2">Expression 1</title><path
               fill="#6042a6"
               stroke="none"
               paint-order="stroke fill markers"
               d=""
               fill-opacity="0.4"
               id="path66-4-5-3-5-92-8"
               style="stroke:#3fb900;stroke-width:18.8976;stroke-dasharray:none;stroke-opacity:1" /><g
               id="g67-9-7-6-8-9-2"
               style="stroke:#3fb900;stroke-width:18.8976;stroke-dasharray:none;stroke-opacity:1"><path
                 fill="none"
                 stroke="#6042a6"
                 class="dcg-svg-curve"
                 paint-order="fill stroke markers"
                 d="M 0,209.77926 V 209.77926 L 5.1757812,214.66817 8.8867187,217.80454 12.011719,220.10343 14.84375,221.85961 17.480469,223.17865 19.921875,224.10503 22.265625,224.71255 24.511719,225.02681 26.757812,225.07425 29.003906,224.85419 31.25,224.36977 33.59375,223.58992 36.035156,222.49256 38.671875,221.00188 41.503906,219.08015 44.628906,216.62554 48.339844,213.34667 53.320312,208.53934 63.867187,198.26121 67.675781,195.00077 70.898437,192.59604 73.730469,190.81065 76.367187,189.46154 78.808594,188.50538 81.152344,187.86797 83.398437,187.52432 85.644531,187.44718 87.890625,187.63765 90.136719,188.09302 92.480469,188.84356 94.921875,189.91199 97.460937,191.31425 100.29297,193.1974 103.41797,195.61607 107.03125,198.77292 111.81641,203.35639 123.53516,214.74651 127.24609,217.87366 130.37109,220.16269 133.20312,221.90853 135.83984,223.21693 138.28125,224.13279 140.625,224.72977 142.87109,225.03368 145.11719,225.07067 147.36328,224.84021 149.60937,224.34559 151.95312,223.55547 154.39453,222.44797 157.03125,220.94719 159.86328,219.01581 163.08594,216.47033 166.89453,213.08371 172.07031,208.06388 181.83594,198.53646 185.74219,195.16593 188.96484,192.73802 191.79687,190.92879 194.43359,189.55508 196.875,188.57449 199.21875,187.91254 201.46484,187.54471 203.71094,187.44311 205.95703,187.60917 208.20312,188.04053 210.54687,188.76684 212.98828,189.81128 215.52734,191.19039 218.26172,192.98103 221.38672,195.36762 225,198.49596 229.6875,202.96126 242.28516,215.1707 245.89844,218.17088 249.02344,220.41654 251.85547,222.117 254.39453,223.33801 256.83594,224.21977 259.17969,224.78264 261.42578,225.05308 263.67187,225.05633 265.91797,224.79233 268.16406,224.26485 270.50781,223.44168 272.94922,222.30163 275.58594,220.76847 278.41797,218.80623 281.64062,216.23143 285.44922,212.8192 290.82031,207.58727 299.90234,198.72413 303.80859,195.33242 307.03125,192.8816 309.96094,190.99147 312.59766,189.60492 315.03906,188.61157 317.38281,187.93678 319.62891,187.55629 321.875,187.44186 324.12109,187.59512 326.36719,188.01388 328.71094,188.72743 331.15234,189.75925 333.69141,191.12616 336.42578,192.90497 339.45312,195.20086 342.96875,198.22101 347.46094,202.47192 361.13281,215.67385 364.64844,218.53745 367.67578,220.6646 370.41016,222.26779 372.94922,223.45523 375.39062,224.3027 377.73437,224.83133 379.98047,225.06824 382.22656,225.03774 384.47266,224.74027 386.71875,224.18005 389.0625,223.324 391.50391,222.15166 394.14062,220.58647 397.07031,218.51985 400,216.15696"
                 stroke-linecap="round"
                 stroke-linejoin="round"
                 stroke-miterlimit="10"
                 stroke-width="2.5"
                 stroke-dasharray="none"
                 id="path67-2-4-3-4-8-1"
                 style="stroke:#3fb900;stroke-width:18.8976;stroke-dasharray:none;stroke-opacity:1" /></g></g></g><g
           id="labels-1f697ac4-3-2-1-3-8"
           style="stroke:#3fb900;stroke-width:18.8976;stroke-dasharray:none;stroke-opacity:1" /><g
           id="g68-5-3-4-4-5-5"
           style="stroke:#3fb900;stroke-width:18.8976;stroke-dasharray:none;stroke-opacity:1" /></g><g
         transform="matrix(0.52916667,0,0,0.52916667,271.68056,182.01667)"
         id="g69-2-2-6-8"
         style="stroke:#03a700;stroke-width:18.8976;stroke-dasharray:none;stroke-opacity:1"
         clip-path="none"><g
           id="expressions-1f697ac4-2-5-5"
           style="stroke:#03a700;stroke-width:18.8976;stroke-dasharray:none;stroke-opacity:1"><g
             id="sketch-1f697ac4-1-0-1"
             style="stroke:#03a700;stroke-width:18.8976;stroke-dasharray:none;stroke-opacity:1"><title
               id="title66-3-9-6-3">Expression 1</title><path
               fill="#6042a6"
               stroke="none"
               paint-order="stroke fill markers"
               d=""
               fill-opacity="0.4"
               id="path66-4-5-22-6"
               style="stroke:#03a700;stroke-width:18.8976;stroke-dasharray:none;stroke-opacity:1" /><g
               id="g67-9-7-8-3"
               style="stroke:#03a700;stroke-width:18.8976;stroke-dasharray:none;stroke-opacity:1"><path
                 fill="none"
                 stroke="#6042a6"
                 class="dcg-svg-curve"
                 paint-order="fill stroke markers"
                 d="M 0,209.77926 V 209.77926 L 5.1757812,214.66817 8.8867187,217.80454 12.011719,220.10343 14.84375,221.85961 17.480469,223.17865 19.921875,224.10503 22.265625,224.71255 24.511719,225.02681 26.757812,225.07425 29.003906,224.85419 31.25,224.36977 33.59375,223.58992 36.035156,222.49256 38.671875,221.00188 41.503906,219.08015 44.628906,216.62554 48.339844,213.34667 53.320312,208.53934 63.867187,198.26121 67.675781,195.00077 70.898437,192.59604 73.730469,190.81065 76.367187,189.46154 78.808594,188.50538 81.152344,187.86797 83.398437,187.52432 85.644531,187.44718 87.890625,187.63765 90.136719,188.09302 92.480469,188.84356 94.921875,189.91199 97.460937,191.31425 100.29297,193.1974 103.41797,195.61607 107.03125,198.77292 111.81641,203.35639 123.53516,214.74651 127.24609,217.87366 130.37109,220.16269 133.20312,221.90853 135.83984,223.21693 138.28125,224.13279 140.625,224.72977 142.87109,225.03368 145.11719,225.07067 147.36328,224.84021 149.60937,224.34559 151.95312,223.55547 154.39453,222.44797 157.03125,220.94719 159.86328,219.01581 163.08594,216.47033 166.89453,213.08371 172.07031,208.06388 181.83594,198.53646 185.74219,195.16593 188.96484,192.73802 191.79687,190.92879 194.43359,189.55508 196.875,188.57449 199.21875,187.91254 201.46484,187.54471 203.71094,187.44311 205.95703,187.60917 208.20312,188.04053 210.54687,188.76684 212.98828,189.81128 215.52734,191.19039 218.26172,192.98103 221.38672,195.36762 225,198.49596 229.6875,202.96126 242.28516,215.1707 245.89844,218.17088 249.02344,220.41654 251.85547,222.117 254.39453,223.33801 256.83594,224.21977 259.17969,224.78264 261.42578,225.05308 263.67187,225.05633 265.91797,224.79233 268.16406,224.26485 270.50781,223.44168 272.94922,222.30163 275.58594,220.76847 278.41797,218.80623 281.64062,216.23143 285.44922,212.8192 290.82031,207.58727 299.90234,198.72413 303.80859,195.33242 307.03125,192.8816 309.96094,190.99147 312.59766,189.60492 315.03906,188.61157 317.38281,187.93678 319.62891,187.55629 321.875,187.44186 324.12109,187.59512 326.36719,188.01388 328.71094,188.72743 331.15234,189.75925 333.69141,191.12616 336.42578,192.90497 339.45312,195.20086 342.96875,198.22101 347.46094,202.47192 361.13281,215.67385 364.64844,218.53745 367.67578,220.6646 370.41016,222.26779 372.94922,223.45523 375.39062,224.3027 377.73437,224.83133 379.98047,225.06824 382.22656,225.03774 384.47266,224.74027 386.71875,224.18005 389.0625,223.324 391.50391,222.15166 394.14062,220.58647 397.07031,218.51985 400,216.15696"
                 stroke-linecap="round"
                 stroke-linejoin="round"
                 stroke-miterlimit="10"
                 stroke-width="2.5"
                 stroke-dasharray="none"
                 id="path67-2-4-23-4"
                 style="stroke:#03a700;stroke-width:18.8976;stroke-dasharray:none;stroke-opacity:1" /></g></g></g><g
           id="labels-1f697ac4-3-3-9"
           style="stroke:#03a700;stroke-width:18.8976;stroke-dasharray:none;stroke-opacity:1" /><g
           id="g68-5-3-3-7"
           style="stroke:#03a700;stroke-width:18.8976;stroke-dasharray:none;stroke-opacity:1" /></g></g><path
       id="path1-7-1-4"
       style="fill:#000000;fill-opacity:0.185315;stroke-width:2.64583;stroke-linecap:round"
       d="M 938.96779,-9.0048 C 910.9834,-9.00471 888.29759,13.6811 888.2975,41.66549 888.29758,69.64989 910.9834,92.3357 938.96779,92.33579 939.98933,92.2938 941.00938,92.2209 942.02651,92.11719 923.31531,90.3601 908.75862,68.31108 908.71848,41.66549 908.75598,14.63539 923.71848,-7.5939 942.72053,-8.85029 941.47195,-8.94815 940.22018,-8.99969 938.96779,-9.0048 Z"
       sodipodi:nodetypes="ccccccc"
       clip-path="none"
       transform="translate(-565.72127,184.92456)" /></g></svg>
