<?xml version="1.0" encoding="UTF-8" standalone="no"?>
<!-- Created with Inkscape (http://www.inkscape.org/) -->

<svg
   width="89.861504mm"
   height="89.557327mm"
   viewBox="0 0 89.861504 89.557327"
   version="1.1"
   id="svg1"
   xml:space="preserve"
   inkscape:version="1.3 (0e150ed6c4, 2023-07-21)"
   sodipodi:docname="stars.svg"
   xmlns:inkscape="http://www.inkscape.org/namespaces/inkscape"
   xmlns:sodipodi="http://sodipodi.sourceforge.net/DTD/sodipodi-0.dtd"
   xmlns="http://www.w3.org/2000/svg"
   xmlns:svg="http://www.w3.org/2000/svg"><sodipodi:namedview
     id="namedview1"
     pagecolor="#ffffff"
     bordercolor="#000000"
     borderopacity="0.25"
     inkscape:showpageshadow="2"
     inkscape:pageopacity="0.0"
     inkscape:pagecheckerboard="0"
     inkscape:deskcolor="#d1d1d1"
     inkscape:document-units="mm"
     inkscape:zoom="0.70710678"
     inkscape:cx="1640.4877"
     inkscape:cy="1356.9379"
     inkscape:window-width="1920"
     inkscape:window-height="1009"
     inkscape:window-x="-8"
     inkscape:window-y="-8"
     inkscape:window-maximized="1"
     inkscape:current-layer="layer1" /><defs
     id="defs1" /><g
     inkscape:label="Layer 1"
     inkscape:groupmode="layer"
     id="layer1"
     transform="translate(-354.01249,-348.98543)"><path
       id="path5-0-5-9-7-1"
       style="fill:none;stroke:#724221;stroke-width:8;stroke-linecap:round;stroke-opacity:1"
       inkscape:transform-center-x="-0.15199855"
       inkscape:transform-center-y="-3.9554867"
       d="M 423.69125,434.50116 C 422.52829,435.32591 400.03158,420.96035 398.60596,420.94402 397.18033,420.92769 374.36042,434.7741 373.21667,433.92292 372.07291,433.07175 378.78351,407.2369 378.3585,405.87602 377.93349,404.51511 357.71303,387.09086 358.16911,385.74007 358.62518,384.38927 385.26927,382.78802 386.43222,381.96327 387.59518,381.13852 397.91816,356.52333 399.34378,356.53966 400.7694,356.55599 410.52576,381.40121 411.66951,382.25239 412.81327,383.10356 439.41368,385.31479 439.83869,386.67567 440.2637,388.03657 419.64937,404.99301 419.19329,406.34381 418.73722,407.69462 424.8542,433.67642 423.69125,434.50116 Z"
       inkscape:export-filename="copper.png"
       inkscape:export-xdpi="96"
       inkscape:export-ydpi="96" /><path
       id="path5-0-3-3-6"
       style="fill:#8f5329;fill-opacity:1;stroke:#b16732;stroke-width:8;stroke-linecap:round;stroke-opacity:1"
       inkscape:transform-center-x="-0.15199855"
       inkscape:transform-center-y="-3.9554867"
       d="M 423.57259,430.94703 C 422.40963,431.77178 399.91292,417.40622 398.48729,417.38989 397.06167,417.37355 374.24176,431.21996 373.098,430.36879 371.95425,429.51762 378.66485,403.68278 378.23984,402.32188 377.81483,400.96099 357.59437,383.53674 358.05044,382.18594 358.50652,380.83513 385.1506,379.23388 386.31356,378.40914 387.47651,377.58439 397.79949,352.9692 399.22512,352.98553 400.65074,353.00186 410.4071,377.84708 411.55085,378.69826 412.69461,379.54943 439.29502,381.76065 439.72003,383.12155 440.14504,384.48245 419.53071,401.43888 419.07463,402.78968 418.61856,404.14048 424.73554,430.12228 423.57259,430.94703 Z" /><path
       id="rect5-0-6-77"
       style="fill:#ffffff;fill-opacity:0.24537;stroke-width:7.99999;stroke-linecap:round"
       d="M 373.45861,406.54891 369.17925,402.41101 408.6924,362.94254 414.12947,375.26563 C 421.68217,376.15193 429.21737,377.18314 436.75824,378.16429 L 378.95442,435.96809 C 378.95442,435.96809 376.94746,437.12822 375.18958,437.65284 374.26983,437.92733 373.32048,438.00173 372.86234,437.93782 372.4042,437.8739 372.05766,437.78226 371.44474,437.51234 370.08062,436.9116 368.5649,435.08041 369.21566,431.51197 369.23362,431.4135 369.14437,431.33593 369.0457,430.70598 368.94703,430.07603 368.83442,429.62989 369.01197,428.36913 369.75785,423.07267 372.68225,410.32931 373.45861,406.54891 Z"
       sodipodi:nodetypes="ccccccszsszsc" /></g></svg>
