<?xml version="1.0" encoding="UTF-8" standalone="no"?>
<!-- Created with Inkscape (http://www.inkscape.org/) -->

<svg
   width="89.861565mm"
   height="89.557343mm"
   viewBox="0 0 89.861565 89.557343"
   version="1.1"
   id="svg1"
   xml:space="preserve"
   inkscape:version="1.3 (0e150ed6c4, 2023-07-21)"
   sodipodi:docname="stars.svg"
   xmlns:inkscape="http://www.inkscape.org/namespaces/inkscape"
   xmlns:sodipodi="http://sodipodi.sourceforge.net/DTD/sodipodi-0.dtd"
   xmlns:xlink="http://www.w3.org/1999/xlink"
   xmlns="http://www.w3.org/2000/svg"
   xmlns:svg="http://www.w3.org/2000/svg"><sodipodi:namedview
     id="namedview1"
     pagecolor="#ffffff"
     bordercolor="#000000"
     borderopacity="0.25"
     inkscape:showpageshadow="2"
     inkscape:pageopacity="0.0"
     inkscape:pagecheckerboard="0"
     inkscape:deskcolor="#d1d1d1"
     inkscape:document-units="mm"
     inkscape:zoom="0.35355339"
     inkscape:cx="2274.0554"
     inkscape:cy="49.497474"
     inkscape:window-width="1920"
     inkscape:window-height="1009"
     inkscape:window-x="-8"
     inkscape:window-y="-8"
     inkscape:window-maximized="1"
     inkscape:current-layer="layer1" /><defs
     id="defs1"><linearGradient
       id="linearGradient18"
       inkscape:collect="always"><stop
         style="stop-color:#ff00c6;stop-opacity:1;"
         offset="0"
         id="stop19" /><stop
         style="stop-color:#36e6e2;stop-opacity:1;"
         offset="1"
         id="stop20" /></linearGradient><linearGradient
       inkscape:collect="always"
       xlink:href="#linearGradient18"
       id="linearGradient23"
       x1="671.89746"
       y1="126.99159"
       x2="761.64032"
       y2="126.99159"
       gradientUnits="userSpaceOnUse" /></defs><g
     inkscape:label="Layer 1"
     inkscape:groupmode="layer"
     id="layer1"
     transform="translate(-671.89742,-83.98998)"><path
       id="path5-0-5-9-76"
       style="fill:none;stroke:#a1a5a4;stroke-width:8;stroke-linecap:round;stroke-opacity:1"
       inkscape:transform-center-x="-0.15199855"
       inkscape:transform-center-y="-3.9554867"
       d="M 741.57621,169.50573 C 740.41325,170.33048 717.91654,155.96492 716.49092,155.94859 715.06529,155.93226 692.24538,169.77867 691.10163,168.92749 689.95787,168.07632 696.66847,142.24147 696.24346,140.88058 695.81845,139.51968 675.59799,122.09543 676.05407,120.74463 676.51014,119.39383 703.15423,117.79258 704.31718,116.96783 705.48014,116.14308 715.80312,91.527896 717.22874,91.544226 718.65436,91.560556 728.41072,116.40577 729.55447,117.25695 730.69823,118.10812 757.29864,120.31935 757.72365,121.68024 758.14866,123.04114 737.53433,139.99758 737.07825,141.34838 736.62218,142.69919 742.73916,168.68099 741.57621,169.50573 Z" /><path
       id="path5-0-3-2"
       style="fill:url(#linearGradient23);fill-opacity:1;stroke:#cdd3d2;stroke-width:8;stroke-linecap:round;stroke-opacity:1"
       inkscape:transform-center-x="-0.15199855"
       inkscape:transform-center-y="-3.9554867"
       d="M 741.45755,165.9516 C 740.29459,166.77635 717.79788,152.41079 716.37225,152.39446 714.94663,152.37812 692.12672,166.22453 690.98296,165.37336 689.83921,164.52219 696.54981,138.68734 696.1248,137.32645 695.69979,135.96555 675.47933,118.5413 675.9354,117.1905 676.39148,115.83969 703.03556,114.23844 704.19852,113.4137 705.36147,112.58895 715.68445,87.973756 717.11008,87.990096 718.5357,88.006426 728.29206,112.85164 729.43581,113.70282 730.57957,114.55399 757.17998,116.76521 757.60499,118.12611 758.03,119.48701 737.41567,136.44345 736.95959,137.79425 736.50352,139.14505 742.6205,165.12685 741.45755,165.9516 Z" /><path
       id="rect5-0-0"
       style="fill:#ffffff;fill-opacity:0.24537;stroke-width:7.99999;stroke-linecap:round"
       d="M 691.34357,141.55348 687.06421,137.41558 726.57736,97.947096 732.01443,110.27019 C 739.56713,111.15649 747.10233,112.1877 754.6432,113.16885 L 696.83938,170.97266 C 696.83938,170.97266 694.83242,172.13279 693.07454,172.65741 692.15479,172.9319 691.20544,173.0063 690.7473,172.94239 690.28916,172.87847 689.94262,172.78683 689.3297,172.51691 687.96558,171.91617 686.44986,170.08498 687.10062,166.51654 687.11858,166.41807 687.02933,166.3405 686.93066,165.71055 686.83199,165.0806 686.71938,164.63446 686.89693,163.3737 687.64281,158.07724 690.56721,145.33388 691.34357,141.55348 Z"
       sodipodi:nodetypes="ccccccszsszsc" /></g></svg>
