<?xml version="1.0" encoding="UTF-8" standalone="no"?>
<!-- Created with Inkscape (http://www.inkscape.org/) -->

<svg
   width="89.861565mm"
   height="89.557343mm"
   viewBox="0 0 89.861565 89.557343"
   version="1.1"
   id="svg1"
   xml:space="preserve"
   inkscape:version="1.3 (0e150ed6c4, 2023-07-21)"
   sodipodi:docname="stars.svg"
   xmlns:inkscape="http://www.inkscape.org/namespaces/inkscape"
   xmlns:sodipodi="http://sodipodi.sourceforge.net/DTD/sodipodi-0.dtd"
   xmlns="http://www.w3.org/2000/svg"
   xmlns:svg="http://www.w3.org/2000/svg"><sodipodi:namedview
     id="namedview1"
     pagecolor="#ffffff"
     bordercolor="#000000"
     borderopacity="0.25"
     inkscape:showpageshadow="2"
     inkscape:pageopacity="0.0"
     inkscape:pagecheckerboard="0"
     inkscape:deskcolor="#d1d1d1"
     inkscape:document-units="mm"
     inkscape:zoom="0.35355339"
     inkscape:cx="2274.0554"
     inkscape:cy="49.497474"
     inkscape:window-width="1920"
     inkscape:window-height="1009"
     inkscape:window-x="-8"
     inkscape:window-y="-8"
     inkscape:window-maximized="1"
     inkscape:current-layer="layer1" /><defs
     id="defs1" /><g
     inkscape:label="Layer 1"
     inkscape:groupmode="layer"
     id="layer1"
     transform="translate(-563.54823,-40.547335)"><path
       id="path5-0-5-9-7-9-5"
       style="fill:none;stroke:#353a85;stroke-width:8;stroke-linecap:round;stroke-opacity:1"
       inkscape:transform-center-x="-0.15199855"
       inkscape:transform-center-y="-3.9554867"
       d="M 633.22701,126.06308 C 632.06405,126.88783 609.56734,112.52227 608.14172,112.50594 606.71609,112.48961 583.89618,126.33602 582.75243,125.48484 581.60867,124.63367 588.31927,98.798818 587.89426,97.437938 587.46925,96.077028 567.24879,78.652778 567.70487,77.301988 568.16094,75.951188 594.80503,74.349938 595.96798,73.525188 597.13094,72.700438 607.45392,48.085248 608.87954,48.101578 610.30516,48.117908 620.06152,72.963128 621.20527,73.814308 622.34903,74.665478 648.94944,76.876708 649.37445,78.237588 649.79946,79.598488 629.18513,96.554928 628.72905,97.905728 628.27298,99.256538 634.38996,125.23834 633.22701,126.06308 Z" /><path
       id="path5-0-3-3-7-5"
       style="fill:#0b15c3;fill-opacity:1;stroke:#6269f6;stroke-width:8;stroke-linecap:round;stroke-opacity:1"
       inkscape:transform-center-x="-0.15199855"
       inkscape:transform-center-y="-3.9554867"
       d="M 633.10835,122.50895 C 631.94539,123.3337 609.44868,108.96814 608.02305,108.95181 606.59743,108.93547 583.77752,122.78188 582.63376,121.93071 581.49001,121.07954 588.20061,95.244698 587.7756,93.883798 587.35059,92.522908 567.13013,75.098658 567.5862,73.747858 568.04228,72.397048 594.68636,70.795798 595.84932,69.971058 597.01227,69.146308 607.33525,44.531118 608.76088,44.547448 610.1865,44.563778 619.94286,69.408998 621.08661,70.260178 622.23037,71.111348 648.83078,73.322568 649.25579,74.683468 649.6808,76.044368 629.06647,93.000798 628.61039,94.351598 628.15432,95.702398 634.2713,121.6842 633.10835,122.50895 Z" /><path
       id="rect5-0-6-7-8"
       style="fill:#ffffff;fill-opacity:0.24537;stroke-width:7.99999;stroke-linecap:round"
       d="M 582.99437,98.110828 578.71501,93.972928 618.22816,54.504458 623.66523,66.827548 C 631.21793,67.713848 638.75313,68.745058 646.294,69.726208 L 588.49018,127.53001 C 588.49018,127.53001 586.48322,128.69014 584.72534,129.21476 583.80559,129.48925 582.85624,129.56365 582.3981,129.49974 581.93996,129.43582 581.59342,129.34418 580.9805,129.07426 579.61638,128.47352 578.10066,126.64233 578.75142,123.07389 578.76938,122.97542 578.68013,122.89785 578.58146,122.2679 578.48279,121.63795 578.37018,121.19181 578.54773,119.93105 579.29361,114.63459 582.21801,101.89123 582.99437,98.110828 Z"
       sodipodi:nodetypes="ccccccszsszsc" /></g></svg>
