<?xml version="1.0" encoding="UTF-8" standalone="no"?>
<!-- Created with Inkscape (http://www.inkscape.org/) -->

<svg
   width="89.861504mm"
   height="89.557327mm"
   viewBox="0 0 89.861504 89.557327"
   version="1.1"
   id="svg1"
   xml:space="preserve"
   inkscape:version="1.3 (0e150ed6c4, 2023-07-21)"
   sodipodi:docname="stars.svg"
   xmlns:inkscape="http://www.inkscape.org/namespaces/inkscape"
   xmlns:sodipodi="http://sodipodi.sourceforge.net/DTD/sodipodi-0.dtd"
   xmlns="http://www.w3.org/2000/svg"
   xmlns:svg="http://www.w3.org/2000/svg"><sodipodi:namedview
     id="namedview1"
     pagecolor="#ffffff"
     bordercolor="#000000"
     borderopacity="0.25"
     inkscape:showpageshadow="2"
     inkscape:pageopacity="0.0"
     inkscape:pagecheckerboard="0"
     inkscape:deskcolor="#d1d1d1"
     inkscape:document-units="mm"
     inkscape:zoom="0.35355339"
     inkscape:cx="2274.0554"
     inkscape:cy="49.497474"
     inkscape:window-width="1920"
     inkscape:window-height="1009"
     inkscape:window-x="-8"
     inkscape:window-y="-8"
     inkscape:window-maximized="1"
     inkscape:current-layer="layer1" /><defs
     id="defs1" /><g
     inkscape:label="Layer 1"
     inkscape:groupmode="layer"
     id="layer1"
     transform="translate(-616.74373,-202.93542)"><path
       id="path5-0-5-9-7-9-5-9"
       style="fill:none;stroke:#660606;stroke-width:8;stroke-linecap:round;stroke-opacity:1"
       inkscape:transform-center-x="-0.15199855"
       inkscape:transform-center-y="-3.9554867"
       d="M 686.42249,288.45116 C 685.25953,289.27591 662.76282,274.91035 661.3372,274.89402 659.91157,274.87769 637.09166,288.7241 635.94791,287.87292 634.80415,287.02175 641.51475,261.1869 641.08974,259.82602 640.66473,258.46511 620.44427,241.04086 620.90035,239.69007 621.35642,238.33927 648.00051,236.73802 649.16346,235.91327 650.32642,235.08852 660.6494,210.47333 662.07502,210.48966 663.50064,210.50599 673.257,235.35121 674.40075,236.20239 675.54451,237.05356 702.14492,239.26479 702.56993,240.62567 702.99494,241.98657 682.38061,258.94301 681.92453,260.29381 681.46846,261.64462 687.58544,287.62642 686.42249,288.45116 Z" /><path
       id="path5-0-3-3-7-5-0"
       style="fill:#ed0f0f;fill-opacity:1;stroke:#ff0fcd;stroke-width:8;stroke-linecap:round;stroke-opacity:1"
       inkscape:transform-center-x="-0.15199855"
       inkscape:transform-center-y="-3.9554867"
       d="M 686.30383,284.89703 C 685.14087,285.72178 662.64416,271.35622 661.21853,271.33989 659.79291,271.32355 636.973,285.16996 635.82924,284.31879 634.68549,283.46762 641.39609,257.63278 640.97108,256.27188 640.54607,254.91099 620.32561,237.48674 620.78168,236.13594 621.23776,234.78513 647.88184,233.18388 649.0448,232.35914 650.20775,231.53439 660.53073,206.9192 661.95636,206.93553 663.38198,206.95186 673.13834,231.79708 674.28209,232.64826 675.42585,233.49943 702.02626,235.71065 702.45127,237.07155 702.87628,238.43245 682.26195,255.38888 681.80587,256.73968 681.3498,258.09048 687.46678,284.07228 686.30383,284.89703 Z" /><path
       id="rect5-0-6-7-8-8"
       style="fill:#ffffff;fill-opacity:0.24537;stroke-width:7.99999;stroke-linecap:round"
       d="M 636.18985,260.49891 631.91049,256.36101 671.42364,216.89254 676.86071,229.21563 C 684.41341,230.10193 691.94861,231.13314 699.48948,232.11429 L 641.68566,289.91809 C 641.68566,289.91809 639.6787,291.07822 637.92082,291.60284 637.00107,291.87733 636.05172,291.95173 635.59358,291.88782 635.13544,291.8239 634.7889,291.73226 634.17598,291.46234 632.81186,290.8616 631.29614,289.03041 631.9469,285.46197 631.96486,285.3635 631.87561,285.28593 631.77694,284.65598 631.67827,284.02603 631.56566,283.57989 631.74321,282.31913 632.48909,277.02267 635.41349,264.27931 636.18985,260.49891 Z"
       sodipodi:nodetypes="ccccccszsszsc" /></g></svg>
