<?xml version="1.0" encoding="UTF-8" standalone="no"?>
<!-- Created with Inkscape (http://www.inkscape.org/) -->

<svg
   width="89.861504mm"
   height="89.557343mm"
   viewBox="0 0 89.861504 89.557343"
   version="1.1"
   id="svg1"
   xml:space="preserve"
   inkscape:version="1.3 (0e150ed6c4, 2023-07-21)"
   sodipodi:docname="stars.svg"
   xmlns:inkscape="http://www.inkscape.org/namespaces/inkscape"
   xmlns:sodipodi="http://sodipodi.sourceforge.net/DTD/sodipodi-0.dtd"
   xmlns="http://www.w3.org/2000/svg"
   xmlns:svg="http://www.w3.org/2000/svg"><sodipodi:namedview
     id="namedview1"
     pagecolor="#ffffff"
     bordercolor="#000000"
     borderopacity="0.25"
     inkscape:showpageshadow="2"
     inkscape:pageopacity="0.0"
     inkscape:pagecheckerboard="0"
     inkscape:deskcolor="#d1d1d1"
     inkscape:document-units="mm"
     inkscape:zoom="0.35355339"
     inkscape:cx="2274.0554"
     inkscape:cy="49.497474"
     inkscape:window-width="1920"
     inkscape:window-height="1009"
     inkscape:window-x="-8"
     inkscape:window-y="-8"
     inkscape:window-maximized="1"
     inkscape:current-layer="layer1" /><defs
     id="defs1" /><g
     inkscape:label="Layer 1"
     inkscape:groupmode="layer"
     id="layer1"
     transform="translate(-423.5149,-62.344423)"><path
       id="path5-0-5-9"
       style="fill:none;stroke:#a1a5a4;stroke-width:8;stroke-linecap:round;stroke-opacity:1"
       inkscape:transform-center-x="-0.15199855"
       inkscape:transform-center-y="-3.9554867"
       d="M 493.19366,147.86017 C 492.0307,148.68492 469.53399,134.31936 468.10837,134.30303 466.68274,134.2867 443.86283,148.13311 442.71908,147.28193 441.57532,146.43076 448.28592,120.59591 447.86091,119.23502 447.4359,117.87412 427.21544,100.44987 427.67152,99.099074 428.12759,97.748274 454.77168,96.147024 455.93463,95.322274 457.09759,94.497524 467.42057,69.882335 468.84619,69.898667 470.27181,69.914999 480.02817,94.760214 481.17192,95.611394 482.31568,96.462564 508.91609,98.673794 509.3411,100.03468 509.76611,101.39558 489.15178,118.35202 488.6957,119.70282 488.23963,121.05363 494.35661,147.03543 493.19366,147.86017 Z" /><path
       id="path5-0-3"
       style="fill:#c0c6c5;fill-opacity:1;stroke:#cdd3d2;stroke-width:8;stroke-linecap:round;stroke-opacity:1"
       inkscape:transform-center-x="-0.15199855"
       inkscape:transform-center-y="-3.9554867"
       d="M 493.075,144.30604 C 491.91204,145.13079 469.41533,130.76523 467.9897,130.7489 466.56408,130.73256 443.74417,144.57897 442.60041,143.7278 441.45666,142.87663 448.16726,117.04178 447.74225,115.68089 447.31724,114.31999 427.09678,96.895744 427.55285,95.544944 428.00893,94.194134 454.65301,92.592884 455.81597,91.768144 456.97892,90.943394 467.3019,66.328203 468.72753,66.344536 470.15315,66.360868 479.90951,91.206084 481.05326,92.057264 482.19702,92.908434 508.79743,95.119654 509.22244,96.480554 509.64745,97.841454 489.03312,114.79789 488.57704,116.14869 488.12097,117.49949 494.23795,143.48129 493.075,144.30604 Z" /><path
       id="rect5-0"
       style="fill:#ffffff;fill-opacity:0.24537;stroke-width:7.99999;stroke-linecap:round"
       d="M 442.96102,119.90792 438.68166,115.77002 478.19481,76.301544 483.63188,88.624634 C 491.18458,89.510934 498.71978,90.542144 506.26065,91.523294 L 448.45683,149.3271 C 448.45683,149.3271 446.44987,150.48723 444.69199,151.01185 443.77224,151.28634 442.82289,151.36074 442.36475,151.29683 441.90661,151.23291 441.56007,151.14127 440.94715,150.87135 439.58303,150.27061 438.06731,148.43942 438.71807,144.87098 438.73603,144.77251 438.64678,144.69494 438.54811,144.06499 438.44944,143.43504 438.33683,142.9889 438.51438,141.72814 439.26026,136.43168 442.18466,123.68832 442.96102,119.90792 Z"
       sodipodi:nodetypes="ccccccszsszsc" /></g></svg>
